SplineFontDB: 3.2
FontName: Corpus-MediumOblique
FullName: Corpus Medium Oblique 
FamilyName: Corpus
Weight: Medium
Copyright: (c) RISC OS Developments Ltd, released under Apache License 2.0
Version: 1
ItalicAngle: 0
UnderlinePosition: 0
UnderlineWidth: 0
Ascent: 314
Descent: 79
InvalidEm: 0
LayerCount: 2
Layer: 0 0 "Back" 1
Layer: 1 0 "Fore" 0
StyleMap: 0x0001
FSType: 0
OS2Version: 0
OS2_WeightWidthSlopeOnly: 0
OS2_UseTypoMetrics: 0
CreationTime: 1653360704
ModificationTime: 1653360705
PfmFamily: 48
TTFWeight: 500
TTFWidth: 5
LineGap: 35
VLineGap: 35
OS2TypoAscent: 0
OS2TypoAOffset: 1
OS2TypoDescent: 0
OS2TypoDOffset: 1
OS2TypoLinegap: 35
OS2WinAscent: 0
OS2WinAOffset: 1
OS2WinDescent: 0
OS2WinDOffset: 1
HheadAscent: 0
HheadAOffset: 1
HheadDescent: 0
HheadDOffset: 1
DEI: 91125
Encoding: Custom
UnicodeInterp: none
NameList: AGL For New Fonts
DisplaySize: -24
AntiAlias: 1
FitToEm: 0
BeginChars: 480 407

StartChar: exclam
Encoding: 33 33 32
Width: 235
VWidth: 0
Flags: HMW
LayerCount: 2
Fore
SplineSet
119.220703125 -1 m 0
 107.094726562 -11 81.0947265625 -11 73.220703125 -1 c 0
 65.345703125 9 67.68359375 20 79.8095703125 30 c 0
 91.9345703125 40 117.934570312 40 125.809570312 30 c 0
 133.68359375 20 131.345703125 9 119.220703125 -1 c 0
158.344726562 216 m 0
 128.350585938 89 l 0
 124.099609375 69 98.099609375 69 102.350585938 89 c 0
 126.344726562 216 l 0
 130.383789062 235 162.383789062 235 158.344726562 216 c 0
EndSplineSet
EndChar

StartChar: quoteleft
Encoding: 34 8216 33
Width: 235
VWidth: 0
Flags: HMW
LayerCount: 2
Fore
SplineSet
112.357421875 135 m 0
 105.381835938 121 80.6572265625 127 88.6328125 141 c 0
 140.826171875 236 l 0
 147.376953125 248 166.526367188 244 159.55078125 230 c 0
 112.357421875 135 l 0
EndSplineSet
EndChar

StartChar: quoteright
Encoding: 35 8217 34
Width: 235
VWidth: 0
Flags: HMW
LayerCount: 2
Fore
SplineSet
135.642578125 236 m 0
 142.618164062 250 167.342773438 244 159.3671875 230 c 0
 107.173828125 135 l 0
 100.623046875 123 81.4736328125 127 88.44921875 141 c 0
 135.642578125 236 l 0
EndSplineSet
EndChar

StartChar: quotedblleft
Encoding: 36 8220 35
Width: 235
VWidth: 0
Flags: HMW
LayerCount: 2
Fore
SplineSet
190.55078125 230 m 0
 143.357421875 135 l 0
 136.381835938 121 111.657226562 127 119.6328125 141 c 0
 171.826171875 236 l 0
 178.376953125 248 197.526367188 244 190.55078125 230 c 0
129.55078125 230 m 0
 82.357421875 135 l 0
 75.3818359375 121 50.6572265625 127 58.6328125 141 c 0
 110.826171875 236 l 0
 117.376953125 248 136.526367188 244 129.55078125 230 c 0
EndSplineSet
EndChar

StartChar: quotedblright
Encoding: 37 8221 36
Width: 235
VWidth: 0
Flags: HMW
LayerCount: 2
Fore
SplineSet
58.44921875 141 m 0
 105.642578125 236 l 0
 112.618164062 250 137.342773438 244 129.3671875 230 c 0
 77.173828125 135 l 0
 70.623046875 123 51.4736328125 127 58.44921875 141 c 0
119.44921875 141 m 0
 166.642578125 236 l 0
 173.618164062 250 198.342773438 244 190.3671875 230 c 0
 138.173828125 135 l 0
 131.623046875 123 112.473632812 127 119.44921875 141 c 0
EndSplineSet
EndChar

StartChar: asciitilde
Encoding: 39 126 38
Width: 235
VWidth: 0
Flags: HMW
LayerCount: 2
Fore
SplineSet
13.4462890625 84 m 0
 61.412109375 145 85.861328125 133 126.822265625 114 c 0
 163.997070312 96 175.359375 93 210.07421875 134 c 0
 219.19921875 144 231.6484375 132 220.672851562 118 c 0
 186.470703125 70 156.620117188 66 115.295898438 88 c 0
 78.97265625 110 61.6103515625 113 24.044921875 68 c 0
 13.494140625 56 2.8955078125 72 13.4462890625 84 c 0
EndSplineSet
EndChar

StartChar: parenleft
Encoding: 40 40 39
Width: 235
VWidth: 0
Flags: HMW
LayerCount: 2
Fore
SplineSet
125.686523438 -51 m 0
 131.860351562 -69 109.735351562 -79 101.28515625 -67 c 0
 58.2900390625 13 85.4970703125 141 164.71484375 222 c 0
 178.264648438 234 196.139648438 224 182.313476562 206 c 0
 117.497070312 141 90.2900390625 13 125.686523438 -51 c 0
EndSplineSet
EndChar

StartChar: parenright
Encoding: 41 41 40
Width: 235
VWidth: 0
Flags: HMW
LayerCount: 2
Fore
SplineSet
106.313476562 206 m 0
 100.139648438 224 122.264648438 234 130.71484375 222 c 0
 175.497070312 141 148.290039062 13 71.28515625 -67 c 0
 57.7353515625 -79 39.8603515625 -69 53.6865234375 -51 c 0
 116.290039062 13 143.497070312 141 106.313476562 206 c 0
EndSplineSet
EndChar

StartChar: asterisk
Encoding: 42 42 41
Width: 235
VWidth: 0
Flags: HMW
LayerCount: 2
Fore
SplineSet
113.821289062 133 m 0
 76.255859375 88 l 0
 64.2802734375 74 45.04296875 87 57.59375 99 c 0
 98.9462890625 143 l 0
 47.7724609375 161 l 0
 33.0478515625 167 47.9365234375 190 61.6611328125 184 c 0
 111.772460938 161 l 0
 121.526367188 221 l 0
 124.926757812 237 149.926757812 237 145.526367188 221 c 0
 129.772460938 161 l 0
 187.661132812 184 l 0
 201.936523438 190 206.047851562 167 190.985351562 162 c 0
 132.159179688 144 l 0
 158.231445312 102 l 0
 165.680664062 90 143.067382812 73 136.04296875 87 c 0
 113.821289062 133 l 0
EndSplineSet
EndChar

StartChar: sterling
Encoding: 43 163 42
Width: 235
VWidth: 0
Flags: HMW
LayerCount: 2
Fore
SplineSet
76.5107421875 22 m 0
 169.510742188 22 l 0
 184.510742188 22 179.834960938 0 164.834960938 0 c 0
 15.8349609375 0 l 0
 0.8349609375 0 5.5107421875 22 20.5107421875 22 c 0
 52.5107421875 22 l 0
 69.0908203125 100 l 0
 52.0908203125 100 l 0
 34.0908203125 100 38.7666015625 122 56.7666015625 122 c 0
 73.7666015625 122 l 0
 82.6943359375 164 l 0
 86.732421875 183 100.920898438 198 117.896484375 212 c 0
 142.147460938 232 186.360351562 233 202.896484375 212 c 0
 213.133789062 199 212.732421875 183 213.245117188 176 c 0
 211.418945312 158 188.418945312 158 187.969726562 170 c 0
 187.245117188 176 188.157226562 185 180.283203125 195 c 0
 171.62109375 206 144.62109375 206 126.432617188 191 c 0
 119.157226562 185 107.543945312 168 106.694335938 164 c 0
 97.7666015625 122 l 0
 121.766601562 122 l 0
 139.766601562 122 135.090820312 100 117.090820312 100 c 0
 93.0908203125 100 l 0
 76.5107421875 22 l 0
EndSplineSet
EndChar

StartChar: comma
Encoding: 44 44 43
Width: 235
VWidth: 0
Flags: HMW
LayerCount: 2
Fore
SplineSet
85.658203125 -62 m 0
 78.3203125 -73 53.2333984375 -64 64.484375 -44 c 0
 111.064453125 34 l 0
 114.551757812 41 120.33984375 40 133.33984375 40 c 0
 143.33984375 40 159.551757812 41 147.151367188 25 c 0
 85.658203125 -62 l 0
EndSplineSet
EndChar

StartChar: hyphen
Encoding: 45 45 44
Width: 235
VWidth: 0
Flags: HMW
LayerCount: 2
Fore
SplineSet
151.294921875 106 m 0
 166.294921875 106 159.705078125 75 144.705078125 75 c 0
 85.705078125 75 l 0
 70.705078125 75 77.294921875 106 92.294921875 106 c 0
 151.294921875 106 l 0
EndSplineSet
EndChar

StartChar: period
Encoding: 46 46 45
Width: 235
VWidth: 0
Flags: HMW
LayerCount: 2
Fore
SplineSet
93.7490234375 -3 m 0
 83.51171875 10 86.48828125 24 102.250976562 37 c 0
 113.1640625 46 135.1640625 46 142.250976562 37 c 0
 152.48828125 24 149.51171875 10 133.749023438 -3 c 0
 122.8359375 -12 100.8359375 -12 93.7490234375 -3 c 0
EndSplineSet
EndChar

StartChar: zero
Encoding: 48 48 47
Width: 235
VWidth: 0
Flags: HMW
LayerCount: 2
Fore
SplineSet
188.10546875 222 m 0
 219.603515625 182 192.396484375 54 143.89453125 14 c 0
 111.155273438 -13 71.1552734375 -13 49.89453125 14 c 0
 18.396484375 54 45.603515625 182 94.10546875 222 c 0
 126.844726562 249 166.844726562 249 188.10546875 222 c 0
165.767578125 211 m 0
 153.956054688 226 129.956054688 226 111.767578125 211 c 0
 72.9658203125 179 47.0341796875 57 72.232421875 25 c 0
 84.0439453125 10 108.043945312 10 126.232421875 25 c 0
 165.034179688 57 190.965820312 179 165.767578125 211 c 0
EndSplineSet
EndChar

StartChar: one
Encoding: 49 49 48
Width: 235
VWidth: 0
Flags: HMW
LayerCount: 2
Fore
SplineSet
91.4052734375 214 m 0
 76.4052734375 214 81.08203125 236 96.08203125 236 c 0
 149.08203125 236 l 0
 155.08203125 236 156.444335938 233 155.168945312 227 c 0
 111.594726562 22 l 0
 162.594726562 22 l 0
 177.594726562 22 172.91796875 0 157.91796875 0 c 0
 30.91796875 0 l 0
 15.91796875 0 20.5947265625 22 35.5947265625 22 c 0
 87.5947265625 22 l 0
 128.405273438 214 l 0
 91.4052734375 214 l 0
EndSplineSet
EndChar

StartChar: two
Encoding: 50 50 49
Width: 235
VWidth: 0
Flags: HMW
LayerCount: 2
Fore
SplineSet
187.775390625 219 m 0
 207.461914062 194 197.896484375 149 157.244140625 113 c 0
 49.90234375 22 l 0
 135.90234375 22 l 0
 147.90234375 22 147.02734375 32 147.877929688 36 c 0
 151.278320312 52 175.278320312 52 171.877929688 36 c 0
 169.327148438 24 165.225585938 0 152.225585938 0 c 0
 25.2255859375 0 l 0
 10.2255859375 0 8.5634765625 11 21.90234375 22 c 0
 103.78125 92 l 0
 171.896484375 149 179.973632812 187 163.4375 208 c 0
 131.15234375 249 81.0361328125 192 73.548828125 185 c 0
 63.8486328125 177 50.611328125 190 59.7373046875 200 c 0
 109.002929688 253 162.002929688 253 187.775390625 219 c 0
EndSplineSet
EndChar

StartChar: three
Encoding: 51 51 50
Width: 235
VWidth: 0
Flags: HMW
LayerCount: 2
Fore
SplineSet
105.397460938 115 m 0
 90.3974609375 115 95.0732421875 137 110.073242188 137 c 0
 158.073242188 137 181.063476562 184 160.58984375 210 c 0
 148.778320312 225 115.778320312 225 81.8271484375 197 c 0
 68.701171875 187 56.8896484375 202 69.2275390625 213 c 0
 114.091796875 250 162.091796875 250 184.927734375 221 c 0
 209.338867188 190 188.26171875 152 153.373046875 129 c 0
 160.735351562 126 170.247070312 119 176.546875 111 c 0
 195.4453125 87 186.092773438 43 148.50390625 12 c 0
 118.189453125 -13 50.189453125 -13 23.56640625 17 c 0
 14.6923828125 27 33.0927734375 43 41.9677734375 33 c 0
 63.291015625 11 109.291015625 11 135.967773438 33 c 0
 161.430664062 54 166.807617188 84 153.420898438 101 c 0
 142.397460938 115 124.247070312 119 105.397460938 115 c 0
EndSplineSet
EndChar

StartChar: four
Encoding: 52 52 51
Width: 235
VWidth: 0
Flags: HMW
LayerCount: 2
Fore
SplineSet
156.592773438 232 m 0
 184.032226562 267 196.356445312 245 195.29296875 240 c 0
 161.497070312 81 l 0
 176.497070312 81 l 0
 191.497070312 81 186.8203125 59 171.8203125 59 c 0
 156.8203125 59 l 0
 148.956054688 22 l 0
 158.956054688 22 l 0
 173.956054688 22 169.279296875 0 154.279296875 0 c 0
 99.279296875 0 l 0
 84.279296875 0 88.9560546875 22 103.956054688 22 c 0
 124.956054688 22 l 0
 132.8203125 59 l 0
 38.8203125 59 l 0
 29.8203125 59 23.095703125 65 35.4970703125 81 c 0
 156.592773438 232 l 0
59.4970703125 81 m 0
 137.497070312 81 l 0
 165.979492188 215 l 0
 59.4970703125 81 l 0
EndSplineSet
EndChar

StartChar: five
Encoding: 53 53 52
Width: 235
VWidth: 0
Flags: HMW
LayerCount: 2
Fore
SplineSet
140.423828125 37 m 0
 164.674804688 57 171.688476562 90 156.727539062 109 c 0
 135.466796875 136 98.978515625 129 76.427734375 117 c 0
 65.365234375 112 55.2158203125 116 62.6162109375 132 c 0
 84.5966796875 226 l 0
 85.8720703125 232 92.72265625 236 97.72265625 236 c 0
 202.72265625 236 l 0
 217.72265625 236 213.045898438 214 198.045898438 214 c 0
 101.045898438 214 l 0
 82.8916015625 138 l 0
 123.29296875 154 155.29296875 154 176.553710938 127 c 0
 199.389648438 98 188.76171875 48 151.171875 17 c 0
 114.795898438 -13 49.7958984375 -13 24.322265625 13 c 0
 13.66015625 24 29.2734375 41 41.5732421875 33 c 0
 77.6845703125 10 111.322265625 13 140.423828125 37 c 0
EndSplineSet
EndChar

StartChar: six
Encoding: 54 54 53
Width: 235
VWidth: 0
Flags: HMW
LayerCount: 2
Fore
SplineSet
141.245117188 30 m 0
 159.43359375 45 169.63671875 93 157.037109375 109 c 0
 141.288085938 129 113.288085938 129 89.037109375 109 c 0
 61.1484375 86 53.49609375 50 69.2451171875 30 c 0
 88.1435546875 6 112.143554688 6 141.245117188 30 c 0
112.104492188 194 m 0
 87.853515625 174 69.626953125 140 63.974609375 104 c 0
 109.176757812 152 155.176757812 152 177.225585938 124 c 0
 197.69921875 98 185.583007812 41 154.056640625 15 c 0
 120.10546875 -13 71.10546875 -13 49.056640625 15 c 0
 15.984375 57 38.08984375 161 99.9306640625 212 c 0
 136.307617188 242 184.583007812 248 204.45703125 238 c 0
 215.181640625 232 205.930664062 212 192.993164062 217 c 0
 169.119140625 227 141.206054688 218 112.104492188 194 c 0
EndSplineSet
EndChar

StartChar: seven
Encoding: 55 55 54
Width: 235
VWidth: 0
Flags: HMW
LayerCount: 2
Fore
SplineSet
70.7666015625 15 m 0
 193.065429688 214 l 0
 89.0654296875 214 l 0
 85.5146484375 202 l 0
 81.326171875 187 58.326171875 187 61.5146484375 202 c 0
 66.6162109375 226 l 0
 67.8916015625 232 75.7421875 236 81.7421875 236 c 0
 206.7421875 236 l 0
 214.7421875 236 222.466796875 230 217.765625 222 c 0
 95.2158203125 3 l 0
 85.6025390625 -14 57.302734375 -6 70.7666015625 15 c 0
EndSplineSet
EndChar

StartChar: eight
Encoding: 56 56 55
Width: 235
VWidth: 0
Flags: HMW
LayerCount: 2
Fore
SplineSet
151.024414062 104 m 0
 135.275390625 124 104.275390625 124 78.8115234375 103 c 0
 58.1982421875 86 49.6962890625 46 62.294921875 30 c 0
 80.40625 7 109.40625 7 137.294921875 30 c 0
 159.12109375 48 166.7734375 84 151.024414062 104 c 0
87.9130859375 127 m 0
 53.1015625 142 51.7294921875 192 86.8935546875 221 c 0
 120.844726562 249 174.844726562 249 196.893554688 221 c 0
 219.729492188 192 187.888671875 141 152.337890625 129 c 0
 195.874023438 108 197.18359375 53 151.106445312 15 c 0
 117.155273438 -13 61.1552734375 -13 39.1064453125 15 c 0
 8.396484375 54 42.724609375 112 87.9130859375 127 c 0
89.439453125 153 m 0
 105.188476562 133 136.188476562 133 160.439453125 153 c 0
 177.415039062 167 183.3671875 195 175.4921875 205 c 0
 156.59375 229 127.59375 229 98.4921875 205 c 0
 84.94140625 193 79.203125 166 89.439453125 153 c 0
EndSplineSet
EndChar

StartChar: nine
Encoding: 57 57 56
Width: 235
VWidth: 0
Flags: HMW
LayerCount: 2
Fore
SplineSet
78.75 126 m 0
 94.4990234375 106 122.499023438 106 146.75 126 c 0
 174.638671875 149 182.50390625 186 166.754882812 206 c 0
 147.856445312 230 123.856445312 230 94.7548828125 206 c 0
 76.56640625 191 66.1513671875 142 78.75 126 c 0
171.813476562 131 m 0
 126.610351562 83 80.6103515625 83 58.5615234375 111 c 0
 38.087890625 137 50.4169921875 195 81.943359375 221 c 0
 115.89453125 249 164.89453125 249 186.943359375 221 c 0
 220.015625 179 197.91015625 75 136.069335938 24 c 0
 99.6923828125 -6 50.4169921875 -12 30.54296875 -2 c 0
 19.818359375 4 29.0693359375 24 42.0068359375 19 c 0
 65.880859375 9 94.7939453125 18 123.895507812 42 c 0
 148.146484375 62 166.161132812 95 171.813476562 131 c 0
EndSplineSet
EndChar

StartChar: colon
Encoding: 58 58 57
Width: 235
VWidth: 0
Flags: HMW
LayerCount: 2
Fore
SplineSet
91.9423828125 37 m 0
 102.85546875 46 124.85546875 46 131.942382812 37 c 0
 142.178710938 24 139.203125 10 123.439453125 -3 c 0
 112.52734375 -12 90.52734375 -12 83.439453125 -3 c 0
 73.203125 10 76.1787109375 24 91.9423828125 37 c 0
104.057617188 94 m 0
 93.8212890625 107 96.796875 121 112.560546875 134 c 0
 123.47265625 143 145.47265625 143 152.560546875 134 c 0
 162.796875 121 159.821289062 107 144.057617188 94 c 0
 133.14453125 85 111.14453125 85 104.057617188 94 c 0
EndSplineSet
EndChar

StartChar: semicolon
Encoding: 59 59 58
Width: 235
VWidth: 0
Flags: HMW
LayerCount: 2
Fore
SplineSet
162.6171875 134 m 0
 172.854492188 121 169.877929688 107 154.115234375 94 c 0
 143.202148438 85 121.202148438 85 114.115234375 94 c 0
 103.877929688 107 106.854492188 121 122.6171875 134 c 0
 133.530273438 143 155.530273438 143 162.6171875 134 c 0
136.44921875 25 m 0
 74.9560546875 -62 l 0
 67.6181640625 -73 42.53125 -64 53.7822265625 -44 c 0
 100.361328125 34 l 0
 103.849609375 41 109.63671875 40 122.63671875 40 c 0
 132.63671875 40 148.849609375 41 136.44921875 25 c 0
EndSplineSet
EndChar

StartChar: quotesingle
Encoding: 60 39 59
Width: 235
VWidth: 0
Flags: HMW
LayerCount: 2
Fore
SplineSet
107.173828125 135 m 0
 100.623046875 123 81.4736328125 127 88.44921875 141 c 0
 135.642578125 236 l 0
 142.618164062 250 167.342773438 244 159.3671875 230 c 0
 107.173828125 135 l 0
EndSplineSet
EndChar

StartChar: equal
Encoding: 61 61 60
Width: 235
VWidth: 0
Flags: HMW
LayerCount: 2
Fore
SplineSet
179.4296875 70 m 0
 194.4296875 70 189.75390625 48 174.75390625 48 c 0
 42.75390625 48 l 0
 27.75390625 48 32.4296875 70 47.4296875 70 c 0
 179.4296875 70 l 0
188.5703125 113 m 0
 56.5703125 113 l 0
 41.5703125 113 46.24609375 135 61.24609375 135 c 0
 193.24609375 135 l 0
 208.24609375 135 203.5703125 113 188.5703125 113 c 0
EndSplineSet
EndChar

StartChar: quotedbl
Encoding: 62 34 61
Width: 235
VWidth: 0
Flags: HMW
LayerCount: 2
Fore
SplineSet
155.850585938 125 m 0
 153.150390625 117 131.150390625 117 131.850585938 125 c 0
 145.831054688 219 l 0
 146.956054688 229 184.956054688 229 181.831054688 219 c 0
 155.850585938 125 l 0
80.8310546875 219 m 0
 81.9560546875 229 119.956054688 229 116.831054688 219 c 0
 90.8505859375 125 l 0
 88.150390625 117 66.150390625 117 66.8505859375 125 c 0
 80.8310546875 219 l 0
EndSplineSet
EndChar

StartChar: question
Encoding: 63 63 62
Width: 235
VWidth: 0
Flags: HMW
LayerCount: 2
Fore
SplineSet
119.729492188 -1 m 0
 107.604492188 -11 81.6044921875 -11 73.7294921875 -1 c 0
 65.85546875 9 68.193359375 20 80.3193359375 30 c 0
 92.4443359375 40 118.444335938 40 126.319335938 30 c 0
 134.193359375 20 131.85546875 9 119.729492188 -1 c 0
191.662109375 121 m 0
 169.8359375 103 144.135742188 95 128.28515625 91 c 0
 124.883789062 75 l 0
 121.483398438 59 97.4833984375 59 100.883789062 75 c 0
 106.623046875 102 l 0
 107.8984375 108 115.749023438 112 121.749023438 112 c 0
 136.9609375 113 151.811523438 117 168.787109375 131 c 0
 193.038085938 151 197.71484375 173 182.752929688 192 c 0
 169.3671875 209 125.3671875 209 96.6904296875 187 c 0
 94.77734375 178 l 0
 91.376953125 162 67.376953125 162 70.77734375 178 c 0
 76.5166015625 205 l 0
 95.4052734375 228 182.318359375 237 209.091796875 203 c 0
 226.415039062 181 218.337890625 143 191.662109375 121 c 0
EndSplineSet
EndChar

StartChar: acute
Encoding: 64 180 63
Width: 235
VWidth: 0
Flags: HMW
LayerCount: 2
Fore
SplineSet
96.60546875 215 m 0
 123.28125 237 l 0
 147.532226562 257 162.643554688 234 143.092773438 222 c 0
 113.479492188 205 l 0
 89.291015625 190 82.0546875 203 96.60546875 215 c 0
EndSplineSet
EndChar

StartChar: A
Encoding: 65 65 64
Width: 235
VWidth: 0
Flags: HMW
LayerCount: 2
Fore
SplineSet
28.9765625 22 m 0
 59.9765625 22 l 0
 74.9765625 22 70.2998046875 0 55.2998046875 0 c 0
 -9.7001953125 0 l 0
 -24.7001953125 0 -20.0234375 22 -5.0234375 22 c 0
 5.9765625 22 l 0
 119.0234375 201 l 0
 69.0234375 201 l 0
 54.0234375 201 58.7001953125 223 73.7001953125 223 c 0
 137.700195312 223 l 0
 150.700195312 223 155 215 156.874023438 205 c 0
 187.9765625 22 l 0
 199.9765625 22 l 0
 214.9765625 22 210.299804688 0 195.299804688 0 c 0
 129.299804688 0 l 0
 114.299804688 0 118.9765625 22 133.9765625 22 c 0
 160.9765625 22 l 0
 152.966796875 69 l 0
 57.966796875 69 l 0
 28.9765625 22 l 0
133.536132812 194 m 0
 70.2177734375 89 l 0
 150.217773438 89 l 0
 133.536132812 194 l 0
EndSplineSet
EndChar

StartChar: B
Encoding: 66 66 65
Width: 235
VWidth: 0
Flags: HMW
LayerCount: 2
Fore
SplineSet
151.0234375 201 m 0
 97.0234375 201 l 0
 80.4443359375 123 l 0
 130.444335938 123 l 0
 192.444335938 123 211.0234375 201 151.0234375 201 c 0
120.299804688 0 m 0
 10.2998046875 0 l 0
 -4.7001953125 0 -0.0234375 22 14.9765625 22 c 0
 34.9765625 22 l 0
 73.0234375 201 l 0
 53.0234375 201 l 0
 38.0234375 201 42.7001953125 223 57.7001953125 223 c 0
 165.700195312 223 l 0
 230.700195312 223 232.033203125 154 177.806640625 120 c 0
 235.130859375 98 208.299804688 0 120.299804688 0 c 0
126.618164062 105 m 0
 76.6181640625 105 l 0
 58.9765625 22 l 0
 127.9765625 22 l 0
 175.9765625 22 221.618164062 105 126.618164062 105 c 0
EndSplineSet
EndChar

StartChar: C
Encoding: 67 67 66
Width: 235
VWidth: 0
Flags: HMW
LayerCount: 2
Fore
SplineSet
206.206054688 211 m 0
 207.694335938 218 l 0
 210.8828125 233 230.8828125 233 227.694335938 218 c 0
 213.666015625 152 l 0
 210.477539062 137 190.477539062 137 193.666015625 152 c 0
 208.119140625 220 132.119140625 220 81.404296875 179 c 0
 39.96484375 144 26.9365234375 78 56.859375 40 c 0
 82.8447265625 7 131.844726562 7 188.834960938 54 c 0
 198.53515625 62 211.985351562 50 198.859375 40 c 0
 127.10546875 -20 64.53125 -18 33.8203125 21 c 0
 -1.6142578125 66 16.0908203125 154 68.23046875 197 c 0
 117.9453125 238 181.733398438 237 206.206054688 211 c 0
EndSplineSet
EndChar

StartChar: D
Encoding: 68 68 67
Width: 235
VWidth: 0
Flags: HMW
LayerCount: 2
Fore
SplineSet
48.7001953125 223 m 0
 142.700195312 223 l 0
 271.700195312 223 222.299804688 0 94.2998046875 0 c 0
 1.2998046875 0 l 0
 -13.7001953125 0 -9.0234375 22 5.9765625 22 c 0
 21.9765625 22 l 0
 60.0234375 201 l 0
 44.0234375 201 l 0
 29.0234375 201 33.7001953125 223 48.7001953125 223 c 0
96.9765625 22 m 0
 194.9765625 22 233.0234375 201 131.0234375 201 c 0
 84.0234375 201 l 0
 45.9765625 22 l 0
 96.9765625 22 l 0
EndSplineSet
EndChar

StartChar: E
Encoding: 69 69 68
Width: 235
VWidth: 0
Flags: HMW
LayerCount: 2
Fore
SplineSet
197.329101562 66 m 0
 186.275390625 14 l 0
 184.575195312 6 177.299804688 0 169.299804688 0 c 0
 6.2998046875 0 l 0
 -8.7001953125 0 -4.0234375 22 10.9765625 22 c 0
 34.9765625 22 l 0
 73.0234375 201 l 0
 49.0234375 201 l 0
 34.0234375 201 38.7001953125 223 53.7001953125 223 c 0
 218.700195312 223 l 0
 224.700195312 223 229.849609375 219 227.724609375 209 c 0
 217.096679688 159 l 0
 213.6953125 143 189.6953125 143 193.096679688 159 c 0
 202.0234375 201 l 0
 97.0234375 201 l 0
 82.14453125 131 l 0
 140.14453125 131 l 0
 143.545898438 147 l 0
 146.734375 162 166.734375 162 163.545898438 147 c 0
 151.642578125 91 l 0
 148.454101562 76 128.454101562 76 131.642578125 91 c 0
 135.46875 109 l 0
 77.46875 109 l 0
 58.9765625 22 l 0
 163.9765625 22 l 0
 173.329101562 66 l 0
 176.729492188 82 200.729492188 82 197.329101562 66 c 0
EndSplineSet
EndChar

StartChar: F
Encoding: 70 70 69
Width: 235
VWidth: 0
Flags: HMW
LayerCount: 2
Fore
SplineSet
215.18359375 150 m 0
 211.782226562 134 187.782226562 134 191.18359375 150 c 0
 202.0234375 201 l 0
 97.0234375 201 l 0
 82.14453125 131 l 0
 140.14453125 131 l 0
 143.545898438 147 l 0
 146.734375 162 166.734375 162 163.545898438 147 c 0
 151.642578125 91 l 0
 148.454101562 76 128.454101562 76 131.642578125 91 c 0
 135.46875 109 l 0
 77.46875 109 l 0
 58.9765625 22 l 0
 100.9765625 22 l 0
 115.9765625 22 111.299804688 0 96.2998046875 0 c 0
 6.2998046875 0 l 0
 -8.7001953125 0 -4.0234375 22 10.9765625 22 c 0
 34.9765625 22 l 0
 73.0234375 201 l 0
 49.0234375 201 l 0
 34.0234375 201 38.7001953125 223 53.7001953125 223 c 0
 218.700195312 223 l 0
 224.700195312 223 229.849609375 219 227.724609375 209 c 0
 215.18359375 150 l 0
EndSplineSet
EndChar

StartChar: G
Encoding: 71 71 70
Width: 235
VWidth: 0
Flags: HMW
LayerCount: 2
Fore
SplineSet
194.750976562 218 m 0
 204.987304688 205 206.049804688 210 207.750976562 218 c 0
 210.30078125 230 230.30078125 230 227.750976562 218 c 0
 215.421875 160 l 0
 212.872070312 148 192.872070312 148 195.421875 160 c 0
 196.697265625 166 195.673828125 180 187.798828125 190 c 0
 166.538085938 217 121.538085938 217 82.736328125 185 c 0
 41.509765625 151 25.35546875 75 53.703125 39 c 0
 80.4755859375 5 134.239257812 18 160.727539062 25 c 0
 172.41796875 80 l 0
 121.41796875 80 l 0
 106.41796875 80 111.09375 102 126.09375 102 c 0
 206.09375 102 l 0
 221.09375 102 216.41796875 80 201.41796875 80 c 0
 196.41796875 80 l 0
 182.814453125 16 l 0
 134.224609375 -15 61.0126953125 -16 30.3017578125 23 c 0
 -3.5576171875 66 15.572265625 156 74.9873046875 205 c 0
 110.151367188 234 182.151367188 234 194.750976562 218 c 0
EndSplineSet
EndChar

StartChar: H
Encoding: 72 72 71
Width: 235
VWidth: 0
Flags: HMW
LayerCount: 2
Fore
SplineSet
136.9765625 22 m 0
 150.9765625 22 l 0
 169.46875 109 l 0
 77.46875 109 l 0
 58.9765625 22 l 0
 71.9765625 22 l 0
 86.9765625 22 82.2998046875 0 67.2998046875 0 c 0
 16.2998046875 0 l 0
 1.2998046875 0 5.9765625 22 20.9765625 22 c 0
 34.9765625 22 l 0
 73.0234375 201 l 0
 59.0234375 201 l 0
 44.0234375 201 48.7001953125 223 63.7001953125 223 c 0
 114.700195312 223 l 0
 129.700195312 223 125.0234375 201 110.0234375 201 c 0
 97.0234375 201 l 0
 81.294921875 127 l 0
 173.294921875 127 l 0
 189.0234375 201 l 0
 175.0234375 201 l 0
 160.0234375 201 164.700195312 223 179.700195312 223 c 0
 230.700195312 223 l 0
 245.700195312 223 241.0234375 201 226.0234375 201 c 0
 213.0234375 201 l 0
 174.9765625 22 l 0
 187.9765625 22 l 0
 202.9765625 22 198.299804688 0 183.299804688 0 c 0
 132.299804688 0 l 0
 117.299804688 0 121.9765625 22 136.9765625 22 c 0
EndSplineSet
EndChar

StartChar: I
Encoding: 73 73 72
Width: 235
VWidth: 0
Flags: HMW
LayerCount: 2
Fore
SplineSet
127.0234375 201 m 0
 66.0234375 201 l 0
 51.0234375 201 55.7001953125 223 70.7001953125 223 c 0
 212.700195312 223 l 0
 227.700195312 223 223.0234375 201 208.0234375 201 c 0
 151.0234375 201 l 0
 112.9765625 22 l 0
 169.9765625 22 l 0
 184.9765625 22 180.299804688 0 165.299804688 0 c 0
 23.2998046875 0 l 0
 8.2998046875 0 12.9765625 22 27.9765625 22 c 0
 88.9765625 22 l 0
 127.0234375 201 l 0
EndSplineSet
EndChar

StartChar: J
Encoding: 74 74 73
Width: 235
VWidth: 0
Flags: HMW
LayerCount: 2
Fore
SplineSet
165.810546875 201 m 0
 104.810546875 201 l 0
 89.810546875 201 94.4873046875 223 109.487304688 223 c 0
 234.487304688 223 l 0
 249.487304688 223 244.810546875 201 229.810546875 201 c 0
 189.810546875 201 l 0
 162.81640625 74 l 0
 139.860351562 -34 20.4736328125 -17 2.4013671875 25 c 0
 15.3671875 86 l 0
 18.767578125 102 39.767578125 102 36.3671875 86 c 0
 32.328125 67 l 0
 18.51171875 2 121.599609375 -7 138.391601562 72 c 0
 165.810546875 201 l 0
EndSplineSet
EndChar

StartChar: K
Encoding: 75 75 74
Width: 235
VWidth: 0
Flags: HMW
LayerCount: 2
Fore
SplineSet
184.0234375 201 m 0
 170.0234375 201 l 0
 155.0234375 201 159.700195312 223 174.700195312 223 c 0
 236.700195312 223 l 0
 251.700195312 223 247.0234375 201 232.0234375 201 c 0
 219.0234375 201 l 0
 197.623046875 185 156.608398438 152 124.08203125 126 c 0
 169.255859375 108 167.227539062 42 183.9765625 22 c 0
 196.9765625 22 l 0
 211.9765625 22 207.299804688 0 192.299804688 0 c 0
 165.299804688 0 l 0
 156.42578125 10 149.9765625 22 147.952148438 36 c 0
 144.329101562 66 115.24609375 155 72.2412109375 75 c 0
 60.9765625 22 l 0
 86.9765625 22 l 0
 101.9765625 22 97.2998046875 0 82.2998046875 0 c 0
 6.2998046875 0 l 0
 -8.7001953125 0 -4.0234375 22 10.9765625 22 c 0
 36.9765625 22 l 0
 75.0234375 201 l 0
 49.0234375 201 l 0
 34.0234375 201 38.7001953125 223 53.7001953125 223 c 0
 129.700195312 223 l 0
 144.700195312 223 140.0234375 201 125.0234375 201 c 0
 99.0234375 201 l 0
 79.8935546875 111 l 0
 116.057617188 140 177.047851562 187 184.0234375 201 c 0
EndSplineSet
EndChar

StartChar: L
Encoding: 76 76 75
Width: 235
VWidth: 0
Flags: HMW
LayerCount: 2
Fore
SplineSet
141.0234375 201 m 0
 97.0234375 201 l 0
 58.9765625 22 l 0
 163.9765625 22 l 0
 178.217773438 89 l 0
 181.618164062 105 205.618164062 105 202.217773438 89 c 0
 186.275390625 14 l 0
 184.575195312 6 177.299804688 0 169.299804688 0 c 0
 -4.7001953125 0 l 0
 -19.7001953125 0 -15.0234375 22 -0.0234375 22 c 0
 34.9765625 22 l 0
 73.0234375 201 l 0
 38.0234375 201 l 0
 23.0234375 201 27.7001953125 223 42.7001953125 223 c 0
 145.700195312 223 l 0
 160.700195312 223 156.0234375 201 141.0234375 201 c 0
EndSplineSet
EndChar

StartChar: M
Encoding: 77 77 76
Width: 235
VWidth: 0
Flags: HMW
LayerCount: 2
Fore
SplineSet
121.69140625 63 m 0
 113.71484375 49 99.71484375 49 97.69140625 63 c 0
 76.8115234375 200 l 0
 34.9765625 22 l 0
 55.9765625 22 l 0
 70.9765625 22 66.2998046875 0 51.2998046875 0 c 0
 -3.7001953125 0 l 0
 -18.7001953125 0 -14.0234375 22 0.9765625 22 c 0
 14.9765625 22 l 0
 59.0234375 201 l 0
 51.0234375 201 l 0
 36.0234375 201 40.7001953125 223 55.7001953125 223 c 0
 89.7001953125 223 l 0
 96.7001953125 223 98.6376953125 218 99.787109375 214 c 0
 117.791992188 87 l 0
 187.787109375 214 l 0
 190.637695312 218 194.700195312 223 201.700195312 223 c 0
 240.700195312 223 l 0
 255.700195312 223 251.0234375 201 236.0234375 201 c 0
 223.0234375 201 l 0
 190.9765625 22 l 0
 209.9765625 22 l 0
 224.9765625 22 220.299804688 0 205.299804688 0 c 0
 148.299804688 0 l 0
 133.299804688 0 137.9765625 22 152.9765625 22 c 0
 166.9765625 22 l 0
 199.0234375 201 l 0
 121.69140625 63 l 0
EndSplineSet
EndChar

StartChar: N
Encoding: 78 78 77
Width: 235
VWidth: 0
Flags: HMW
LayerCount: 2
Fore
SplineSet
155.359375 7 m 0
 79.4072265625 186 l 0
 44.5478515625 22 l 0
 82.5478515625 22 l 0
 97.5478515625 22 92.87109375 0 77.87109375 0 c 0
 4.87109375 0 l 0
 -10.12890625 0 -5.4521484375 22 9.5478515625 22 c 0
 24.5478515625 22 l 0
 62.595703125 201 l 0
 47.595703125 201 l 0
 32.595703125 201 37.271484375 223 52.271484375 223 c 0
 87.271484375 223 l 0
 89.05859375 222 91.05859375 222 92.6337890625 220 c 0
 93.4208984375 219 93.7841796875 216 94.3583984375 214 c 0
 171.948242188 38 l 0
 206.595703125 201 l 0
 171.595703125 201 l 0
 156.595703125 201 161.271484375 223 176.271484375 223 c 0
 239.271484375 223 l 0
 254.271484375 223 249.595703125 201 234.595703125 201 c 0
 226.595703125 201 l 0
 185.359375 7 l 0
 181.958007812 -9 162.74609375 -10 155.359375 7 c 0
EndSplineSet
EndChar

StartChar: O
Encoding: 79 79 78
Width: 235
VWidth: 0
Flags: HMW
LayerCount: 2
Fore
SplineSet
205.705078125 199 m 0
 238.990234375 158 219.434570312 66 168.294921875 23 c 0
 120.79296875 -17 60.79296875 -17 30.294921875 23 c 0
 -2.5654296875 66 16.990234375 158 67.705078125 199 c 0
 115.20703125 239 175.20703125 239 205.705078125 199 c 0
147.420898438 33 m 0
 192.28515625 70 209.71484375 152 180.579101562 189 c 0
 160.10546875 215 120.10546875 215 88.5791015625 189 c 0
 43.71484375 152 26.28515625 70 55.4208984375 33 c 0
 75.89453125 7 115.89453125 7 147.420898438 33 c 0
EndSplineSet
EndChar

StartChar: P
Encoding: 80 80 79
Width: 235
VWidth: 0
Flags: HMW
LayerCount: 2
Fore
SplineSet
72.580078125 86 m 0
 58.9765625 22 l 0
 111.9765625 22 l 0
 126.9765625 22 122.299804688 0 107.299804688 0 c 0
 -2.7001953125 0 l 0
 -17.7001953125 0 -13.0234375 22 1.9765625 22 c 0
 34.9765625 22 l 0
 73.0234375 201 l 0
 40.0234375 201 l 0
 25.0234375 201 29.7001953125 223 44.7001953125 223 c 0
 152.700195312 223 l 0
 254.700195312 223 225.580078125 86 115.580078125 86 c 0
 72.580078125 86 l 0
115.831054688 106 m 0
 192.831054688 106 215.0234375 201 144.0234375 201 c 0
 97.0234375 201 l 0
 76.8310546875 106 l 0
 115.831054688 106 l 0
EndSplineSet
EndChar

StartChar: Q
Encoding: 81 81 80
Width: 235
VWidth: 0
Flags: HMW
LayerCount: 2
Fore
SplineSet
82.3896484375 -21 m 0
 98.1533203125 -8 l 0
 82.3896484375 -21 l 0
152.868164062 33 m 0
 197.732421875 70 215.162109375 152 186.02734375 189 c 0
 165.553710938 215 125.553710938 215 94.02734375 189 c 0
 49.162109375 152 31.732421875 70 60.8681640625 33 c 0
 81.341796875 7 121.341796875 7 152.868164062 33 c 0
82.3896484375 -21 m 0
 101.90234375 -28 131.989257812 -37 150.90234375 -28 c 0
 190.153320312 -8 194.540039062 -25 170.86328125 -47 c 0
 133.211914062 -83 91.8154296875 -19 59.7138671875 -43 c 0
 20.974609375 -70 0.564453125 -39 74.791015625 -5 c 0
 68.00390625 -4 48.9169921875 5 35.7421875 23 c 0
 2.8828125 66 22.4375 158 73.15234375 199 c 0
 120.655273438 239 180.655273438 239 211.15234375 199 c 0
 244.4375 158 224.8828125 66 173.7421875 23 c 0
 149.491210938 3 112.515625 -11 98.1533203125 -8 c 0
 82.3896484375 -21 l 0
EndSplineSet
EndChar

StartChar: R
Encoding: 82 82 81
Width: 235
VWidth: 0
Flags: HMW
LayerCount: 2
Fore
SplineSet
129.030273438 116 m 0
 187.030273438 116 211.09765625 201 146.09765625 201 c 0
 97.09765625 201 l 0
 79.0302734375 116 l 0
 129.030273438 116 l 0
94.0498046875 22 m 0
 109.049804688 22 104.373046875 0 89.373046875 0 c 0
 10.373046875 0 l 0
 -4.626953125 0 0.0498046875 22 15.0498046875 22 c 0
 35.0498046875 22 l 0
 73.09765625 201 l 0
 53.09765625 201 l 0
 38.09765625 201 42.7734375 223 57.7734375 223 c 0
 162.7734375 223 l 0
 227.7734375 223 237.455078125 118 140.841796875 101 c 0
 162.315429688 75 175.36328125 47 184.049804688 22 c 0
 199.049804688 22 l 0
 214.049804688 22 209.373046875 0 194.373046875 0 c 0
 167.373046875 0 l 0
 152.03515625 -11 147.392578125 113 75.2041015625 98 c 0
 59.0498046875 22 l 0
 94.0498046875 22 l 0
EndSplineSet
EndChar

StartChar: S
Encoding: 83 83 82
Width: 235
VWidth: 0
Flags: HMW
LayerCount: 2
Fore
SplineSet
31.3525390625 9 m 0
 26.67578125 -13 2.67578125 -13 7.3525390625 9 c 0
 20.318359375 70 l 0
 23.71875 86 46.71875 86 43.10546875 69 c 0
 39.3759765625 -5 154.2890625 4 166.192382812 60 c 0
 178.30859375 117 88.443359375 80 55.583984375 123 c 0
 38.8349609375 143 44.69921875 180 73.80078125 204 c 0
 107.751953125 232 158.240234375 239 188.713867188 213 c 0
 193.438476562 207 197.013671875 205 198.564453125 217 c 0
 201.751953125 232 221.751953125 232 218.564453125 217 c 0
 206.661132812 161 l 0
 204.47265625 146 183.47265625 146 186.661132812 161 c 0
 190.776367188 218 88.8388671875 223 76.0859375 163 c 0
 63.1201171875 102 155.41015625 141 189.26953125 98 c 0
 201.65625 81 194.154296875 41 170.115234375 22 c 0
 109.913085938 -26 57.013671875 -2 31.3525390625 9 c 0
EndSplineSet
EndChar

StartChar: T
Encoding: 84 84 83
Width: 235
VWidth: 0
Flags: HMW
LayerCount: 2
Fore
SplineSet
42.2998046875 0 m 0
 27.2998046875 0 31.9765625 22 46.9765625 22 c 0
 88.9765625 22 l 0
 127.0234375 201 l 0
 67.0234375 201 l 0
 48.9951171875 135 l 0
 45.59375 119 21.59375 119 24.9951171875 135 c 0
 40.724609375 209 l 0
 42.4248046875 217 49.7001953125 223 57.7001953125 223 c 0
 229.700195312 223 l 0
 237.700195312 223 242.424804688 217 240.724609375 209 c 0
 224.995117188 135 l 0
 221.59375 119 197.59375 119 200.995117188 135 c 0
 211.0234375 201 l 0
 151.0234375 201 l 0
 112.9765625 22 l 0
 154.9765625 22 l 0
 169.9765625 22 165.299804688 0 150.299804688 0 c 0
 42.2998046875 0 l 0
EndSplineSet
EndChar

StartChar: U
Encoding: 85 85 84
Width: 235
VWidth: 0
Flags: HMW
LayerCount: 2
Fore
SplineSet
169.321289062 72 m 0
 196.741210938 201 l 0
 178.741210938 201 l 0
 163.741210938 201 168.416992188 223 183.416992188 223 c 0
 235.416992188 223 l 0
 250.416992188 223 245.741210938 201 230.741210938 201 c 0
 216.741210938 201 l 0
 188.68359375 69 l 0
 167.215820312 -32 12.2158203125 -32 33.68359375 69 c 0
 61.7412109375 201 l 0
 54.7412109375 201 l 0
 39.7412109375 201 44.4169921875 223 59.4169921875 223 c 0
 119.416992188 223 l 0
 134.416992188 223 129.741210938 201 114.741210938 201 c 0
 85.7412109375 201 l 0
 58.3212890625 72 l 0
 41.9541015625 -5 152.954101562 -5 169.321289062 72 c 0
EndSplineSet
EndChar

StartChar: V
Encoding: 86 86 85
Width: 235
VWidth: 0
Flags: HMW
LayerCount: 2
Fore
SplineSet
112.203125 0 m 0
 105.865234375 -11 82.65234375 -12 81.416015625 1 c 0
 48.9267578125 201 l 0
 36.9267578125 201 l 0
 21.9267578125 201 26.603515625 223 41.603515625 223 c 0
 115.603515625 223 l 0
 130.603515625 223 125.926757812 201 110.926757812 201 c 0
 76.9267578125 201 l 0
 104.729492188 26 l 0
 211.926757812 201 l 0
 176.926757812 201 l 0
 161.926757812 201 166.603515625 223 181.603515625 223 c 0
 250.603515625 223 l 0
 265.603515625 223 260.926757812 201 245.926757812 201 c 0
 234.926757812 201 l 0
 112.203125 0 l 0
EndSplineSet
EndChar

StartChar: W
Encoding: 87 87 86
Width: 235
VWidth: 0
Flags: HMW
LayerCount: 2
Fore
SplineSet
146.30859375 170 m 0
 156.61328125 35 l 0
 213.897460938 201 l 0
 180.897460938 201 l 0
 165.897460938 201 170.57421875 223 185.57421875 223 c 0
 248.57421875 223 l 0
 263.57421875 223 258.897460938 201 243.897460938 201 c 0
 232.897460938 201 l 0
 163.173828125 0 l 0
 160.473632812 -8 135.198242188 -14 134.38671875 1 c 0
 125.357421875 142 l 0
 53.173828125 0 l 0
 50.4736328125 -8 25.1982421875 -14 24.38671875 1 c 0
 46.8974609375 201 l 0
 34.8974609375 201 l 0
 19.8974609375 201 24.57421875 223 39.57421875 223 c 0
 107.57421875 223 l 0
 122.57421875 223 117.897460938 201 102.897460938 201 c 0
 71.8974609375 201 l 0
 52.826171875 36 l 0
 120.30859375 170 l 0
 127.072265625 183 146.072265625 183 146.30859375 170 c 0
EndSplineSet
EndChar

StartChar: X
Encoding: 88 88 87
Width: 235
VWidth: 0
Flags: HMW
LayerCount: 2
Fore
SplineSet
64.9765625 22 m 0
 79.9765625 22 75.2998046875 0 60.2998046875 0 c 0
 5.2998046875 0 l 0
 -9.7001953125 0 -5.0234375 22 9.9765625 22 c 0
 17.9765625 22 l 0
 105.106445312 112 l 0
 61.0234375 201 l 0
 52.0234375 201 l 0
 37.0234375 201 41.7001953125 223 56.7001953125 223 c 0
 110.700195312 223 l 0
 125.700195312 223 121.0234375 201 106.0234375 201 c 0
 91.0234375 201 l 0
 124.357421875 132 l 0
 191.0234375 201 l 0
 171.0234375 201 l 0
 156.0234375 201 160.700195312 223 175.700195312 223 c 0
 228.700195312 223 l 0
 243.700195312 223 239.0234375 201 224.0234375 201 c 0
 214.0234375 201 l 0
 133.956054688 116 l 0
 180.9765625 22 l 0
 189.9765625 22 l 0
 204.9765625 22 200.299804688 0 185.299804688 0 c 0
 128.299804688 0 l 0
 113.299804688 0 117.9765625 22 132.9765625 22 c 0
 149.9765625 22 l 0
 113.91796875 97 l 0
 40.9765625 22 l 0
 64.9765625 22 l 0
EndSplineSet
EndChar

StartChar: Y
Encoding: 89 89 88
Width: 235
VWidth: 0
Flags: HMW
LayerCount: 2
Fore
SplineSet
174.700195312 223 m 0
 239.700195312 223 l 0
 254.700195312 223 250.0234375 201 235.0234375 201 c 0
 224.0234375 201 l 0
 125.942382812 83 l 0
 112.9765625 22 l 0
 154.9765625 22 l 0
 169.9765625 22 165.299804688 0 150.299804688 0 c 0
 45.2998046875 0 l 0
 30.2998046875 0 34.9765625 22 49.9765625 22 c 0
 88.9765625 22 l 0
 101.942382812 83 l 0
 60.0234375 201 l 0
 48.0234375 201 l 0
 33.0234375 201 37.7001953125 223 52.7001953125 223 c 0
 117.700195312 223 l 0
 132.700195312 223 128.0234375 201 113.0234375 201 c 0
 92.0234375 201 l 0
 123.618164062 105 l 0
 197.0234375 201 l 0
 170.0234375 201 l 0
 155.0234375 201 159.700195312 223 174.700195312 223 c 0
EndSplineSet
EndChar

StartChar: Z
Encoding: 90 90 89
Width: 235
VWidth: 0
Flags: HMW
LayerCount: 2
Fore
SplineSet
30.2998046875 0 m 0
 19.2998046875 0 10.5751953125 6 23.9765625 22 c 0
 183.0234375 201 l 0
 98.0234375 201 l 0
 85.6083984375 152 l 0
 82.2080078125 136 58.2080078125 136 61.6083984375 152 c 0
 73.724609375 209 l 0
 75.4248046875 217 82.7001953125 223 90.7001953125 223 c 0
 207.700195312 223 l 0
 218.700195312 223 227.424804688 217 214.0234375 201 c 0
 56.9765625 22 l 0
 144.9765625 22 l 0
 164.666992188 77 l 0
 169.067382812 93 193.067382812 93 188.666992188 77 c 0
 170.275390625 14 l 0
 167.575195312 6 160.299804688 0 152.299804688 0 c 0
 30.2998046875 0 l 0
EndSplineSet
EndChar

StartChar: dieresis
Encoding: 91 168 90
Width: 235
VWidth: 0
Flags: HMW
LayerCount: 2
Fore
SplineSet
65.44921875 212 m 0
 59.9375 219 62.0625 229 70.55078125 236 c 0
 80.2509765625 244 90.2509765625 244 96.55078125 236 c 0
 102.0625 229 99.9375 219 91.44921875 212 c 0
 81.7490234375 204 71.7490234375 204 65.44921875 212 c 0
160.44921875 212 m 0
 150.749023438 204 140.749023438 204 134.44921875 212 c 0
 128.9375 219 131.0625 229 139.55078125 236 c 0
 149.250976562 244 159.250976562 244 165.55078125 236 c 0
 171.0625 229 168.9375 219 160.44921875 212 c 0
EndSplineSet
EndChar

StartChar: ring
Encoding: 92 730 91
Width: 235
VWidth: 0
Flags: HMW
LayerCount: 2
Fore
SplineSet
117.91796875 219 m 0
 127.618164062 227 130.381835938 240 124.08203125 248 c 0
 118.5703125 255 106.5703125 255 98.08203125 248 c 0
 88.3818359375 240 85.6181640625 227 91.91796875 219 c 0
 97.4296875 212 109.4296875 212 117.91796875 219 c 0
128.791992188 209 m 0
 110.604492188 194 87.6044921875 194 76.7919921875 209 c 0
 66.5556640625 222 71.4443359375 245 87.2080078125 258 c 0
 104.395507812 273 127.395507812 273 139.208007812 258 c 0
 149.444335938 245 144.555664062 222 128.791992188 209 c 0
EndSplineSet
EndChar

StartChar: dotaccent
Encoding: 93 729 92
Width: 235
VWidth: 0
Flags: HMW
LayerCount: 2
Fore
SplineSet
105.44921875 212 m 0
 99.9375 219 102.0625 229 110.55078125 236 c 0
 120.250976562 244 130.250976562 244 136.55078125 236 c 0
 142.0625 229 139.9375 219 131.44921875 212 c 0
 121.749023438 204 111.749023438 204 105.44921875 212 c 0
EndSplineSet
EndChar

StartChar: circumflex
Encoding: 94 710 93
Width: 235
VWidth: 0
Flags: HMW
LayerCount: 2
Fore
SplineSet
95.5166015625 208 m 0
 75.6904296875 190 53.390625 198 78.8544921875 219 c 0
 105.530273438 241 l 0
 121.293945312 254 129.293945312 254 139.530273438 241 c 0
 156.854492188 219 l 0
 173.390625 198 147.690429688 190 135.516601562 208 c 0
 122.854492188 219 l 0
 119.705078125 223 117.705078125 223 112.854492188 219 c 0
 95.5166015625 208 l 0
EndSplineSet
EndChar

StartChar: underscore
Encoding: 95 95 94
Width: 235
VWidth: 0
Flags: HMW
LayerCount: 2
Fore
SplineSet
2.337890625 -70 m 0
 237.337890625 -70 l 0
 237.337890625 -70 l 0
 232.662109375 -92 l 0
 -2.337890625 -92 l 0
 2.337890625 -70 l 0
EndSplineSet
EndChar

StartChar: grave
Encoding: 96 96 95
Width: 235
VWidth: 0
Flags: HMW
LayerCount: 2
Fore
SplineSet
107.479492188 205 m 0
 85.0927734375 222 l 0
 70.6435546875 234 95.5322265625 257 111.28125 237 c 0
 128.60546875 215 l 0
 138.0546875 203 125.291015625 190 107.479492188 205 c 0
EndSplineSet
EndChar

StartChar: a
Encoding: 97 97 96
Width: 235
VWidth: 0
Flags: HMW
LayerCount: 2
Fore
SplineSet
192.614257812 22 m 0
 207.614257812 22 202.9375 0 187.9375 0 c 0
 155.9375 0 l 0
 146.9375 0 143.000976562 5 144.913085938 14 c 0
 149.165039062 34 l 0
 117.662109375 -6 52.048828125 -23 21.3388671875 16 c 0
 8.7392578125 32 15.541015625 64 39.79296875 84 c 0
 76.1689453125 114 120.744140625 112 162.618164062 102 c 0
 166.01953125 118 167.5703125 130 162.057617188 137 c 0
 144.734375 159 112.734375 159 68.0576171875 137 c 0
 57.9951171875 132 52.3095703125 157 66.5849609375 163 c 0
 118.047851562 184 168.772460938 178 186.096679688 156 c 0
 192.396484375 148 193.419921875 134 192.145507812 128 c 0
 169.614257812 22 l 0
 192.614257812 22 l 0
47.52734375 31 m 0
 68.7880859375 4 117.401367188 21 152.565429688 50 c 0
 159.155273438 81 l 0
 120.705078125 93 84.705078125 93 56.81640625 70 c 0
 43.478515625 59 38.865234375 42 47.52734375 31 c 0
EndSplineSet
EndChar

StartChar: b
Encoding: 98 98 97
Width: 235
VWidth: 0
Flags: HMW
LayerCount: 2
Fore
SplineSet
11.2763671875 22 m 0
 35.2763671875 22 l 0
 78 223 l 0
 54 223 l 0
 39 223 43.67578125 245 58.67578125 245 c 0
 93.67578125 245 l 0
 102.67578125 245 106.61328125 240 104.700195312 231 c 0
 86.2080078125 144 l 0
 121.135742188 186 176.135742188 186 203.696289062 151 c 0
 230.46875 117 216.65234375 52 180.276367188 22 c 0
 132.986328125 -17 74.986328125 -17 59.6142578125 33 c 0
 55.5751953125 14 l 0
 53.662109375 5 47.599609375 0 38.599609375 0 c 0
 6.599609375 0 l 0
 -8.400390625 0 -3.7236328125 22 11.2763671875 22 c 0
180.719726562 137 m 0
 162.608398438 160 128.608398438 160 100.719726562 137 c 0
 71.619140625 113 60.140625 59 79.0390625 35 c 0
 97.9375 11 131.9375 11 158.614257812 33 c 0
 190.140625 59 201.193359375 111 180.719726562 137 c 0
EndSplineSet
EndChar

StartChar: c
Encoding: 99 99 98
Width: 235
VWidth: 0
Flags: HMW
LayerCount: 2
Fore
SplineSet
43.529296875 17 m 0
 12.8193359375 56 25.1474609375 114 72.4375 153 c 0
 110.026367188 184 180.026367188 184 197.586914062 149 c 0
 201.200195312 166 l 0
 204.176757812 180 224.176757812 180 221.200195312 166 c 0
 208.659179688 107 l 0
 205.896484375 94 185.896484375 94 188.659179688 107 c 0
 189.296875 110 182.3359375 129 178.3984375 134 c 0
 157.137695312 161 116.137695312 161 83.3984375 134 c 0
 54.296875 110 43.669921875 60 62.568359375 36 c 0
 84.6162109375 8 135.616210938 8 187.756835938 51 c 0
 198.669921875 60 209.119140625 48 196.993164062 38 c 0
 130.302734375 -17 70.302734375 -17 43.529296875 17 c 0
EndSplineSet
EndChar

StartChar: d
Encoding: 100 100 99
Width: 235
VWidth: 0
Flags: HMW
LayerCount: 2
Fore
SplineSet
51.6962890625 151 m 0
 94.1357421875 186 149.135742188 186 166.208007812 144 c 0
 183 223 l 0
 133 223 l 0
 118 223 122.67578125 245 137.67578125 245 c 0
 198.67578125 245 l 0
 207.67578125 245 211.61328125 240 209.700195312 231 c 0
 165.276367188 22 l 0
 189.276367188 22 l 0
 204.276367188 22 199.599609375 0 184.599609375 0 c 0
 152.599609375 0 l 0
 143.599609375 0 139.662109375 5 141.575195312 14 c 0
 145.614257812 33 l 0
 108.986328125 -17 50.986328125 -17 20.2763671875 22 c 0
 -3.34765625 52 10.46875 117 51.6962890625 151 c 0
148.719726562 137 m 0
 130.608398438 160 96.6083984375 160 68.7197265625 137 c 0
 37.193359375 111 26.140625 59 46.6142578125 33 c 0
 63.9375 11 97.9375 11 127.0390625 35 c 0
 156.140625 59 167.619140625 113 148.719726562 137 c 0
EndSplineSet
EndChar

StartChar: e
Encoding: 101 101 100
Width: 235
VWidth: 0
Flags: HMW
LayerCount: 2
Fore
SplineSet
52.572265625 78 m 0
 51.7216796875 74 48.6201171875 50 59.64453125 36 c 0
 86.41796875 2 145.818359375 18 179.857421875 37 c 0
 192.557617188 45 198.793945312 32 189.09375 24 c 0
 141.803710938 -15 67.8037109375 -15 43.3935546875 16 c 0
 12.68359375 55 25.2236328125 114 72.513671875 153 c 0
 110.102539062 184 180.102539062 184 197.663085938 149 c 0
 206.325195312 138 209.649414062 116 208.03515625 99 c 0
 206.697265625 88 202.784179688 79 193.572265625 78 c 0
 52.572265625 78 l 0
57.248046875 100 m 0
 186.248046875 100 l 0
 187.5234375 106 186.349609375 124 178.475585938 134 c 0
 157.213867188 161 116.213867188 161 83.4755859375 134 c 0
 67.7119140625 121 58.5234375 106 57.248046875 100 c 0
EndSplineSet
EndChar

StartChar: f
Encoding: 102 102 101
Width: 235
VWidth: 0
Flags: HMW
LayerCount: 2
Fore
SplineSet
205.508789062 217 m 0
 188.359375 221 157.122070312 234 133.083984375 215 c 0
 125.595703125 208 120.044921875 196 119.1953125 192 c 0
 114.731445312 171 l 0
 181.731445312 171 l 0
 196.731445312 171 192.055664062 149 177.055664062 149 c 0
 110.055664062 149 l 0
 83.060546875 22 l 0
 150.060546875 22 l 0
 165.060546875 22 160.384765625 0 145.384765625 0 c 0
 18.384765625 0 l 0
 3.384765625 0 8.060546875 22 23.060546875 22 c 0
 59.060546875 22 l 0
 86.0556640625 149 l 0
 50.0556640625 149 l 0
 35.0556640625 149 39.7314453125 171 54.7314453125 171 c 0
 90.7314453125 171 l 0
 95.8330078125 195 l 0
 97.533203125 203 101.934570312 219 111.421875 226 c 0
 154.07421875 262 199.310546875 249 225.248046875 244 c 0
 246.610351562 241 222.659179688 213 205.508789062 217 c 0
EndSplineSet
EndChar

StartChar: g
Encoding: 103 103 102
Width: 235
VWidth: 0
Flags: HMW
LayerCount: 2
Fore
SplineSet
155.282226562 37 m 0
 124.693359375 6 66.693359375 6 43.0693359375 36 c 0
 18.083984375 69 29.349609375 122 68.1513671875 154 c 0
 104.528320312 184 162.528320312 184 182.088867188 149 c 0
 183.7890625 157 l 0
 185.702148438 166 191.764648438 171 200.764648438 171 c 0
 231.764648438 171 l 0
 246.764648438 171 242.088867188 149 227.088867188 149 c 0
 204.088867188 149 l 0
 174.54296875 10 l 0
 166.891601562 -26 147.639648438 -46 128.452148438 -61 c 0
 106.625976562 -79 48.4130859375 -80 39.5390625 -70 c 0
 29.876953125 -59 46.978515625 -35 60.27734375 -43 c 0
 80.7275390625 -55 104.15234375 -53 123.552734375 -37 c 0
 133.25390625 -29 144.8671875 -12 148.267578125 4 c 0
 155.282226562 37 l 0
163.325195312 136 m 0
 145.213867188 159 109.213867188 159 81.3251953125 136 c 0
 53.4365234375 113 45.9970703125 78 64.1083984375 55 c 0
 82.2197265625 32 118.219726562 32 146.108398438 55 c 0
 173.997070312 78 181.436523438 113 163.325195312 136 c 0
EndSplineSet
EndChar

StartChar: h
Encoding: 104 104 103
Width: 235
VWidth: 0
Flags: HMW
LayerCount: 2
Fore
SplineSet
188.970703125 160 m 0
 201.5703125 144 194.46875 120 193.831054688 117 c 0
 173.637695312 22 l 0
 189.637695312 22 l 0
 204.637695312 22 199.961914062 0 184.961914062 0 c 0
 127.961914062 0 l 0
 112.961914062 0 117.637695312 22 132.637695312 22 c 0
 149.637695312 22 l 0
 169.831054688 117 l 0
 170.681640625 121 171.657226562 135 166.932617188 141 c 0
 149.608398438 163 110.908203125 155 77.681640625 121 c 0
 56.6376953125 22 l 0
 71.6376953125 22 l 0
 86.6376953125 22 81.9619140625 0 66.9619140625 0 c 0
 9.9619140625 0 l 0
 -5.0380859375 0 -0.3623046875 22 14.6376953125 22 c 0
 32.6376953125 22 l 0
 75.3623046875 223 l 0
 57.3623046875 223 l 0
 42.3623046875 223 47.0380859375 245 62.0380859375 245 c 0
 90.0380859375 245 l 0
 98.0380859375 245 102.762695312 239 101.0625 231 c 0
 82.9951171875 146 l 0
 111.734375 173 164.560546875 191 188.970703125 160 c 0
EndSplineSet
EndChar

StartChar: i
Encoding: 105 105 104
Width: 235
VWidth: 0
Flags: HMW
LayerCount: 2
Fore
SplineSet
161.111328125 0 m 0
 24.111328125 0 l 0
 9.111328125 0 13.7880859375 22 28.7880859375 22 c 0
 83.7880859375 22 l 0
 110.782226562 149 l 0
 70.7822265625 149 l 0
 55.7822265625 149 60.458984375 171 75.458984375 171 c 0
 125.458984375 171 l 0
 133.458984375 171 138.18359375 165 136.483398438 157 c 0
 107.788085938 22 l 0
 165.788085938 22 l 0
 180.788085938 22 176.111328125 0 161.111328125 0 c 0
148.173828125 212 m 0
 144.772460938 196 120.772460938 196 124.173828125 212 c 0
 130.337890625 241 l 0
 133.73828125 257 157.73828125 257 154.337890625 241 c 0
 148.173828125 212 l 0
EndSplineSet
EndChar

StartChar: j
Encoding: 106 106 105
Width: 235
VWidth: 0
Flags: HMW
LayerCount: 2
Fore
SplineSet
123.482421875 -13 m 0
 157.916015625 149 l 0
 68.916015625 149 l 0
 53.916015625 149 58.5927734375 171 73.5927734375 171 c 0
 172.592773438 171 l 0
 180.592773438 171 185.317382812 165 183.6171875 157 c 0
 147.482421875 -13 l 0
 143.231445312 -33 135.04296875 -48 113.4296875 -65 c 0
 98.666015625 -78 59.453125 -79 21.728515625 -73 c 0
 6.728515625 -73 11.4052734375 -51 26.4052734375 -51 c 0
 64.767578125 -54 90.5546875 -55 108.743164062 -40 c 0
 119.65625 -31 121.994140625 -20 123.482421875 -13 c 0
154.307617188 212 m 0
 160.471679688 241 l 0
 163.872070312 257 187.872070312 257 184.471679688 241 c 0
 178.307617188 212 l 0
 174.90625 196 150.90625 196 154.307617188 212 c 0
EndSplineSet
EndChar

StartChar: k
Encoding: 107 107 106
Width: 235
VWidth: 0
Flags: HMW
LayerCount: 2
Fore
SplineSet
138.6328125 149 m 0
 123.6328125 149 128.30859375 171 143.30859375 171 c 0
 205.30859375 171 l 0
 220.30859375 171 215.6328125 149 200.6328125 149 c 0
 189.6328125 149 l 0
 103.4296875 101 l 0
 170.637695312 22 l 0
 184.637695312 22 l 0
 199.637695312 22 194.961914062 0 179.961914062 0 c 0
 121.961914062 0 l 0
 106.961914062 0 111.637695312 22 126.637695312 22 c 0
 137.637695312 22 l 0
 84.87890625 89 l 0
 68.75390625 79 l 0
 54.9375 14 l 0
 53.0244140625 5 46.9619140625 0 37.9619140625 0 c 0
 4.9619140625 0 l 0
 -10.0380859375 0 -5.3623046875 22 9.6376953125 22 c 0
 32.6376953125 22 l 0
 75.3623046875 223 l 0
 52.3623046875 223 l 0
 37.3623046875 223 42.0380859375 245 57.0380859375 245 c 0
 90.0380859375 245 l 0
 99.0380859375 245 102.975585938 240 101.0625 231 c 0
 73.4296875 101 l 0
 154.6328125 149 l 0
 138.6328125 149 l 0
EndSplineSet
EndChar

StartChar: l
Encoding: 108 108 107
Width: 235
VWidth: 0
Flags: HMW
LayerCount: 2
Fore
SplineSet
142.038085938 245 m 0
 150.038085938 245 154.762695312 239 153.0625 231 c 0
 108.637695312 22 l 0
 171.637695312 22 l 0
 186.637695312 22 181.961914062 0 166.961914062 0 c 0
 17.9619140625 0 l 0
 2.9619140625 0 7.6376953125 22 22.6376953125 22 c 0
 84.6376953125 22 l 0
 127.362304688 223 l 0
 87.3623046875 223 l 0
 72.3623046875 223 77.0380859375 245 92.0380859375 245 c 0
 142.038085938 245 l 0
EndSplineSet
EndChar

StartChar: m
Encoding: 109 109 108
Width: 235
VWidth: 0
Flags: HMW
LayerCount: 2
Fore
SplineSet
169.255859375 14 m 0
 190.724609375 115 l 0
 203.052734375 173 146.501953125 161 136.724609375 115 c 0
 116.95703125 22 l 0
 132.95703125 22 l 0
 147.95703125 22 143.280273438 0 128.280273438 0 c 0
 102.280273438 0 l 0
 94.2802734375 0 89.5556640625 6 91.255859375 14 c 0
 112.724609375 115 l 0
 122.71484375 162 87.71484375 162 60.57421875 119 c 0
 39.95703125 22 l 0
 54.95703125 22 l 0
 69.95703125 22 65.2802734375 0 50.2802734375 0 c 0
 -3.7197265625 0 l 0
 -18.7197265625 0 -14.04296875 22 0.95703125 22 c 0
 15.95703125 22 l 0
 42.951171875 149 l 0
 27.951171875 149 l 0
 12.951171875 149 17.6279296875 171 32.6279296875 171 c 0
 57.6279296875 171 l 0
 65.6279296875 171 70.3525390625 165 68.6513671875 157 c 0
 65.888671875 144 l 0
 95.8154296875 186 134.603515625 185 139.951171875 149 c 0
 173.666015625 190 230.453125 189 214.724609375 115 c 0
 194.95703125 22 l 0
 207.95703125 22 l 0
 222.95703125 22 218.280273438 0 203.280273438 0 c 0
 180.280273438 0 l 0
 172.280273438 0 167.555664062 6 169.255859375 14 c 0
EndSplineSet
EndChar

StartChar: n
Encoding: 110 110 109
Width: 235
VWidth: 0
Flags: HMW
LayerCount: 2
Fore
SplineSet
81.609375 171 m 0
 89.609375 171 94.333984375 165 92.6328125 157 c 0
 90.294921875 146 l 0
 119.034179688 173 171.860351562 191 196.270507812 160 c 0
 208.870117188 144 201.768554688 120 201.130859375 117 c 0
 180.938476562 22 l 0
 196.938476562 22 l 0
 211.938476562 22 207.26171875 0 192.26171875 0 c 0
 135.26171875 0 l 0
 120.26171875 0 124.938476562 22 139.938476562 22 c 0
 156.938476562 22 l 0
 177.130859375 117 l 0
 177.981445312 121 178.95703125 135 174.232421875 141 c 0
 156.908203125 163 118.208007812 155 84.9814453125 121 c 0
 63.9384765625 22 l 0
 78.9384765625 22 l 0
 93.9384765625 22 89.26171875 0 74.26171875 0 c 0
 17.26171875 0 l 0
 2.26171875 0 6.9384765625 22 21.9384765625 22 c 0
 39.9384765625 22 l 0
 66.9326171875 149 l 0
 48.9326171875 149 l 0
 33.9326171875 149 38.609375 171 53.609375 171 c 0
 81.609375 171 l 0
EndSplineSet
EndChar

StartChar: o
Encoding: 111 111 110
Width: 235
VWidth: 0
Flags: HMW
LayerCount: 2
Fore
SplineSet
200.454101562 153 m 0
 231.1640625 114 218.8359375 56 171.545898438 17 c 0
 133.95703125 -14 55.95703125 -14 37.5458984375 17 c 0
 6.8359375 56 19.1640625 114 66.4541015625 153 c 0
 104.04296875 184 182.04296875 184 200.454101562 153 c 0
180.415039062 134 m 0
 159.154296875 161 110.154296875 161 77.4150390625 134 c 0
 48.3134765625 110 37.6865234375 60 56.5849609375 36 c 0
 77.845703125 9 126.845703125 9 159.584960938 36 c 0
 188.686523438 60 199.313476562 110 180.415039062 134 c 0
EndSplineSet
EndChar

StartChar: p
Encoding: 112 112 111
Width: 235
VWidth: 0
Flags: HMW
LayerCount: 2
Fore
SplineSet
94.5302734375 157 m 0
 90.279296875 137 l 0
 127.907226562 187 185.907226562 187 216.618164062 148 c 0
 240.241210938 118 226.424804688 53 185.198242188 19 c 0
 142.758789062 -16 87.7587890625 -16 70.685546875 26 c 0
 54.1064453125 -52 l 0
 93.1064453125 -52 l 0
 108.106445312 -52 103.4296875 -74 88.4296875 -74 c 0
 -0.5703125 -74 l 0
 -15.5703125 -74 -10.8935546875 -52 4.1064453125 -52 c 0
 28.1064453125 -52 l 0
 70.830078125 149 l 0
 46.830078125 149 l 0
 31.830078125 149 36.5068359375 171 51.5068359375 171 c 0
 83.5068359375 171 l 0
 92.5068359375 171 96.443359375 166 94.5302734375 157 c 0
168.173828125 33 m 0
 199.700195312 59 210.752929688 111 190.279296875 137 c 0
 172.956054688 159 138.956054688 159 109.854492188 135 c 0
 80.7529296875 111 69.275390625 57 88.173828125 33 c 0
 106.28515625 10 140.28515625 10 168.173828125 33 c 0
EndSplineSet
EndChar

StartChar: q
Encoding: 113 113 112
Width: 235
VWidth: 0
Flags: HMW
LayerCount: 2
Fore
SplineSet
151.685546875 26 m 0
 116.758789062 -16 61.7587890625 -16 34.1982421875 19 c 0
 7.4248046875 53 21.2412109375 118 57.6181640625 148 c 0
 104.907226562 187 162.907226562 187 179.279296875 137 c 0
 183.530273438 157 l 0
 185.443359375 166 191.506835938 171 200.506835938 171 c 0
 232.506835938 171 l 0
 247.506835938 171 242.830078125 149 227.830078125 149 c 0
 203.830078125 149 l 0
 161.106445312 -52 l 0
 187.106445312 -52 l 0
 202.106445312 -52 197.4296875 -74 182.4296875 -74 c 0
 91.4296875 -74 l 0
 76.4296875 -74 81.1064453125 -52 96.1064453125 -52 c 0
 135.106445312 -52 l 0
 151.685546875 26 l 0
158.854492188 135 m 0
 139.956054688 159 105.956054688 159 79.279296875 137 c 0
 47.7529296875 111 36.7001953125 59 57.173828125 33 c 0
 75.28515625 10 109.28515625 10 137.173828125 33 c 0
 166.275390625 57 177.752929688 111 158.854492188 135 c 0
EndSplineSet
EndChar

StartChar: r
Encoding: 114 114 113
Width: 235
VWidth: 0
Flags: HMW
LayerCount: 2
Fore
SplineSet
203.158203125 136 m 0
 178.748046875 167 154.284179688 146 101.143554688 103 c 0
 83.9267578125 22 l 0
 158.926757812 22 l 0
 173.926757812 22 169.250976562 0 154.250976562 0 c 0
 12.2509765625 0 l 0
 -2.7490234375 0 1.9267578125 22 16.9267578125 22 c 0
 59.9267578125 22 l 0
 86.921875 149 l 0
 58.921875 149 l 0
 43.921875 149 48.59765625 171 63.59765625 171 c 0
 101.59765625 171 l 0
 110.59765625 171 114.53515625 166 112.622070312 157 c 0
 105.395507812 123 l 0
 139.322265625 165 202.69921875 195 227.897460938 163 c 0
 236.559570312 152 211.033203125 126 203.158203125 136 c 0
EndSplineSet
EndChar

StartChar: s
Encoding: 115 115 114
Width: 235
VWidth: 0
Flags: HMW
LayerCount: 2
Fore
SplineSet
199.758789062 123 m 0
 196.782226562 109 176.782226562 109 179.758789062 123 c 0
 178.497070312 150 122.536132812 169 91.009765625 143 c 0
 78.8837890625 133 75.12109375 120 81.419921875 112 c 0
 103.46875 84 160.419921875 112 186.40625 79 c 0
 198.217773438 64 192.840820312 34 168.58984375 14 c 0
 133.42578125 -15 70.9130859375 -8 47.7392578125 10 c 0
 44.1640625 12 44.2275390625 17 41.4638671875 4 c 0
 38.48828125 -10 18.48828125 -10 21.4638671875 4 c 0
 31.87890625 53 l 0
 34.85546875 67 54.85546875 67 51.87890625 53 c 0
 71.7392578125 10 120.0390625 2 153.990234375 30 c 0
 162.478515625 37 168.091796875 54 162.580078125 61 c 0
 146.043945312 82 80.2177734375 64 57.3818359375 93 c 0
 46.357421875 107 53.1591796875 139 72.560546875 155 c 0
 105.298828125 182 150.086914062 181 178.47265625 164 c 0
 184.985351562 157 188.685546875 165 189.536132812 169 c 0
 192.51171875 183 212.51171875 183 209.536132812 169 c 0
 199.758789062 123 l 0
EndSplineSet
EndChar

StartChar: t
Encoding: 116 116 115
Width: 235
VWidth: 0
Flags: HMW
LayerCount: 2
Fore
SplineSet
60.5478515625 55 m 0
 80.5283203125 149 l 0
 46.5283203125 149 l 0
 31.5283203125 149 36.205078125 171 51.205078125 171 c 0
 85.205078125 171 l 0
 90.09375 194 l 0
 92.21875 204 94.044921875 222 95.9580078125 231 c 0
 99.146484375 246 127.146484375 246 123.958007812 231 c 0
 122.044921875 222 116.21875 204 114.09375 194 c 0
 109.205078125 171 l 0
 197.205078125 171 l 0
 212.205078125 171 207.528320312 149 192.528320312 149 c 0
 104.528320312 149 l 0
 86.4609375 64 l 0
 84.9736328125 57 80.9345703125 38 89.5966796875 27 c 0
 102.983398438 10 151.321289062 21 185.083984375 34 c 0
 198.147460938 39 201.108398438 20 191.258789062 16 c 0
 160.495117188 3 94.3310546875 -26 61.470703125 17 c 0
 54.958984375 24 58.84765625 47 60.5478515625 55 c 0
EndSplineSet
EndChar

StartChar: u
Encoding: 117 117 116
Width: 235
VWidth: 0
Flags: HMW
LayerCount: 2
Fore
SplineSet
86.869140625 157 m 0
 64.5498046875 52 l 0
 63.7001953125 48 62.724609375 34 67.44921875 28 c 0
 84.7724609375 6 123.47265625 14 156.700195312 48 c 0
 178.16796875 149 l 0
 146.16796875 149 l 0
 131.16796875 149 135.844726562 171 150.844726562 171 c 0
 192.844726562 171 l 0
 200.844726562 171 205.569335938 165 203.869140625 157 c 0
 175.173828125 22 l 0
 193.173828125 22 l 0
 208.173828125 22 203.497070312 0 188.497070312 0 c 0
 160.497070312 0 l 0
 152.497070312 0 147.772460938 6 149.47265625 14 c 0
 151.598632812 24 l 0
 122.859375 -3 70.033203125 -21 45.623046875 10 c 0
 33.0234375 26 40.125 50 40.7626953125 53 c 0
 61.16796875 149 l 0
 45.16796875 149 l 0
 30.16796875 149 34.8447265625 171 49.8447265625 171 c 0
 75.8447265625 171 l 0
 83.8447265625 171 88.5693359375 165 86.869140625 157 c 0
EndSplineSet
EndChar

StartChar: v
Encoding: 118 118 117
Width: 235
VWidth: 0
Flags: HMW
LayerCount: 2
Fore
SplineSet
119.404296875 8 m 0
 102.94140625 -13 92.728515625 -14 86.1923828125 7 c 0
 51.375 149 l 0
 40.375 149 l 0
 25.375 149 30.0517578125 171 45.0517578125 171 c 0
 108.051757812 171 l 0
 123.051757812 171 118.375 149 103.375 149 c 0
 78.375 149 l 0
 106.805664062 24 l 0
 191.375 149 l 0
 163.375 149 l 0
 148.375 149 153.051757812 171 168.051757812 171 c 0
 230.051757812 171 l 0
 245.051757812 171 240.375 149 225.375 149 c 0
 215.375 149 l 0
 119.404296875 8 l 0
EndSplineSet
EndChar

StartChar: w
Encoding: 119 119 118
Width: 235
VWidth: 0
Flags: HMW
LayerCount: 2
Fore
SplineSet
236.375 149 m 0
 231.375 149 l 0
 156.5546875 4 l 0
 148.154296875 -12 133.154296875 -12 131.129882812 2 c 0
 118.622070312 89 l 0
 69.1298828125 2 l 0
 61.154296875 -12 46.154296875 -12 44.5546875 4 c 0
 32.375 149 l 0
 28.375 149 l 0
 13.375 149 18.0517578125 171 33.0517578125 171 c 0
 89.0517578125 171 l 0
 104.051757812 171 99.375 149 84.375 149 c 0
 59.375 149 l 0
 66.3564453125 36 l 0
 118.423828125 121 l 0
 126.1875 134 138.1875 134 139.423828125 121 c 0
 152.356445312 36 l 0
 210.375 149 l 0
 182.375 149 l 0
 167.375 149 172.051757812 171 187.051757812 171 c 0
 241.051757812 171 l 0
 256.051757812 171 251.375 149 236.375 149 c 0
EndSplineSet
EndChar

StartChar: x
Encoding: 120 120 119
Width: 235
VWidth: 0
Flags: HMW
LayerCount: 2
Fore
SplineSet
187.826171875 0 m 0
 129.826171875 0 l 0
 114.826171875 0 119.502929688 22 134.502929688 22 c 0
 145.502929688 22 l 0
 110.91796875 71 l 0
 51.5029296875 22 l 0
 67.5029296875 22 l 0
 82.5029296875 22 77.826171875 0 62.826171875 0 c 0
 7.826171875 0 l 0
 -7.173828125 0 -2.4970703125 22 12.5029296875 22 c 0
 20.5029296875 22 l 0
 98.318359375 87 l 0
 51.4970703125 149 l 0
 42.4970703125 149 l 0
 27.4970703125 149 32.173828125 171 47.173828125 171 c 0
 99.173828125 171 l 0
 114.173828125 171 109.497070312 149 94.4970703125 149 c 0
 86.4970703125 149 l 0
 118.719726562 103 l 0
 174.497070312 149 l 0
 161.497070312 149 l 0
 146.497070312 149 151.173828125 171 166.173828125 171 c 0
 217.173828125 171 l 0
 232.173828125 171 227.497070312 149 212.497070312 149 c 0
 204.497070312 149 l 0
 130.53125 88 l 0
 178.502929688 22 l 0
 192.502929688 22 l 0
 207.502929688 22 202.826171875 0 187.826171875 0 c 0
EndSplineSet
EndChar

StartChar: y
Encoding: 121 121 120
Width: 235
VWidth: 0
Flags: HMW
LayerCount: 2
Fore
SplineSet
51.3623046875 149 m 0
 36.3623046875 149 41.0380859375 171 56.0380859375 171 c 0
 109.038085938 171 l 0
 124.038085938 171 119.362304688 149 104.362304688 149 c 0
 86.3623046875 149 l 0
 120.130859375 35 l 0
 199.362304688 149 l 0
 179.362304688 149 l 0
 164.362304688 149 169.038085938 171 184.038085938 171 c 0
 238.038085938 171 l 0
 253.038085938 171 248.362304688 149 233.362304688 149 c 0
 223.362304688 149 l 0
 74.6376953125 -52 l 0
 103.637695312 -52 l 0
 118.637695312 -52 113.961914062 -74 98.9619140625 -74 c 0
 3.9619140625 -74 l 0
 -11.0380859375 -74 -6.3623046875 -52 8.6376953125 -52 c 0
 47.6376953125 -52 l 0
 101.666992188 14 l 0
 59.3623046875 149 l 0
 51.3623046875 149 l 0
EndSplineSet
EndChar

StartChar: z
Encoding: 122 122 121
Width: 235
VWidth: 0
Flags: HMW
LayerCount: 2
Fore
SplineSet
28.826171875 0 m 0
 9.826171875 0 11.376953125 12 23.5029296875 22 c 0
 174.497070312 149 l 0
 82.4970703125 149 l 0
 77.6083984375 126 l 0
 74.2080078125 110 50.2080078125 110 53.6083984375 126 c 0
 60.1982421875 157 l 0
 61.8984375 165 69.173828125 171 77.173828125 171 c 0
 203.173828125 171 l 0
 220.173828125 171 223.047851562 161 208.497070312 149 c 0
 59.5029296875 22 l 0
 148.502929688 22 l 0
 159.81640625 47 l 0
 163.217773438 63 187.217773438 63 183.81640625 47 c 0
 182.541015625 41 175.077148438 20 173.801757812 14 c 0
 172.1015625 6 164.826171875 0 156.826171875 0 c 0
 28.826171875 0 l 0
EndSplineSet
EndChar

StartChar: breve
Encoding: 123 728 122
Width: 235
VWidth: 0
Flags: HMW
LayerCount: 2
Fore
SplineSet
55.875 283 m 0
 57.42578125 295 73.42578125 295 74.087890625 284 c 0
 70.986328125 260 86.8603515625 250 107.860351562 250 c 0
 135.860351562 250 151.411132812 262 160.087890625 284 c 0
 167.850585938 297 179.788085938 292 177.087890625 284 c 0
 165.797851562 245 137.184570312 228 103.184570312 228 c 0
 75.1845703125 228 50.16015625 242 55.875 283 c 0
EndSplineSet
EndChar

StartChar: macron
Encoding: 124 175 123
Width: 235
VWidth: 0
Flags: HMW
LayerCount: 2
Fore
SplineSet
159.55078125 239 m 0
 174.55078125 239 169.44921875 215 154.44921875 215 c 0
 71.44921875 215 l 0
 56.44921875 215 61.55078125 239 76.55078125 239 c 0
 159.55078125 239 l 0
EndSplineSet
EndChar

StartChar: hungarumlaut
Encoding: 125 733 124
Width: 235
VWidth: 0
Flags: HMW
LayerCount: 2
Fore
SplineSet
124.55078125 197 m 0
 161.541015625 244 l 0
 168.516601562 258 193.241210938 252 185.265625 238 c 0
 143.275390625 191 l 0
 136.724609375 179 117.575195312 183 124.55078125 197 c 0
63.55078125 197 m 0
 100.541015625 244 l 0
 107.516601562 258 132.241210938 252 124.265625 238 c 0
 82.275390625 191 l 0
 75.724609375 179 56.5751953125 183 63.55078125 197 c 0
EndSplineSet
EndChar

StartChar: tilde
Encoding: 126 732 125
Width: 235
VWidth: 0
Flags: HMW
LayerCount: 2
Fore
SplineSet
115.662109375 212 m 0
 105.787109375 222 89.787109375 222 84.236328125 210 c 0
 80.5361328125 202 64.8115234375 208 74.787109375 222 c 0
 93.1015625 247 108.1640625 252 128.337890625 234 c 0
 138.212890625 224 154.212890625 224 159.975585938 237 c 0
 163.67578125 245 181.826171875 241 169.212890625 224 c 0
 150.8984375 199 135.8359375 194 115.662109375 212 c 0
EndSplineSet
EndChar

StartChar: caron
Encoding: 127 711 126
Width: 235
VWidth: 0
Flags: HMW
LayerCount: 2
Fore
SplineSet
82.380859375 231 m 0
 68.931640625 243 79.544921875 260 93.3564453125 245 c 0
 112.318359375 226 l 0
 116.467773438 222 121.467773438 222 127.318359375 226 c 0
 154.356445312 245 l 0
 169.120117188 258 177.994140625 248 162.806640625 233 c 0
 125.641601562 204 l 0
 114.94140625 196 112.94140625 196 105.641601562 204 c 0
 82.380859375 231 l 0
EndSplineSet
EndChar

StartChar: onesuperior
Encoding: 128 185 127
Width: 235
VWidth: 0
Flags: HMW
LayerCount: 2
Fore
SplineSet
135.565429688 226 m 0
 117.28515625 140 l 0
 139.28515625 140 l 0
 148.28515625 140 145.096679688 125 136.096679688 125 c 0
 78.0966796875 125 l 0
 69.0966796875 125 72.28515625 140 81.28515625 140 c 0
 101.28515625 140 l 0
 118.71484375 222 l 0
 102.71484375 222 l 0
 93.71484375 222 96.9033203125 237 105.903320312 237 c 0
 126.903320312 237 l 0
 136.903320312 237 137.690429688 236 135.565429688 226 c 0
EndSplineSet
EndChar

StartChar: twosuperior
Encoding: 129 178 128
Width: 235
VWidth: 0
Flags: HMW
LayerCount: 2
Fore
SplineSet
133.525390625 125 m 0
 76.525390625 125 l 0
 70.525390625 125 68.80078125 131 77.5009765625 139 c 0
 111.665039062 168 l 0
 144.829101562 197 147.017578125 212 140.717773438 220 c 0
 133.630859375 229 121.630859375 229 105.868164062 216 c 0
 94.955078125 207 87.080078125 217 104.056640625 231 c 0
 122.244140625 246 145.244140625 246 156.268554688 232 c 0
 165.717773438 220 161.19140625 194 141.791015625 178 c 0
 96.7138671875 140 l 0
 130.713867188 140 l 0
 133.264648438 152 147.264648438 152 145.288085938 138 c 0
 143.80078125 131 139.525390625 125 133.525390625 125 c 0
EndSplineSet
EndChar

StartChar: threesuperior
Encoding: 130 179 129
Width: 235
VWidth: 0
Flags: HMW
LayerCount: 2
Fore
SplineSet
87.0693359375 145 m 0
 94.943359375 135 110.943359375 135 123.069335938 145 c 0
 140.044921875 159 134.295898438 179 116.295898438 179 c 0
 103.295898438 179 106.272460938 193 119.272460938 193 c 0
 126.272460938 193 144.885742188 210 137.010742188 220 c 0
 128.349609375 231 110.6484375 223 108.223632812 221 c 0
 97.310546875 212 88.2236328125 221 101.561523438 232 c 0
 118.537109375 246 141.537109375 246 152.561523438 232 c 0
 163.5859375 218 149.484375 194 133.997070312 187 c 0
 152.083984375 178 159.982421875 154 133.305664062 132 c 0
 117.54296875 119 85.54296875 119 75.09375 131 c 0
 68.21875 141 80.76953125 153 87.0693359375 145 c 0
EndSplineSet
EndChar

StartChar: foursuperior
Encoding: 131 8308 130
Width: 235
VWidth: 0
Flags: HMW
LayerCount: 2
Fore
SplineSet
119.545898438 165 m 0
 129.323242188 211 l 0
 94.5458984375 165 l 0
 119.545898438 165 l 0
134.211914062 234 m 0
 142.337890625 244 152.337890625 244 150.211914062 234 c 0
 135.545898438 165 l 0
 139.545898438 165 l 0
 149.545898438 165 146.5703125 151 136.5703125 151 c 0
 132.5703125 151 l 0
 129.168945312 135 l 0
 133.168945312 135 l 0
 142.168945312 135 139.193359375 121 130.193359375 121 c 0
 107.193359375 121 l 0
 98.193359375 121 101.168945312 135 110.168945312 135 c 0
 113.168945312 135 l 0
 116.5703125 151 l 0
 78.5703125 151 l 0
 72.5703125 151 75.2705078125 159 76.908203125 162 c 0
 134.211914062 234 l 0
EndSplineSet
EndChar

StartChar: fraction
Encoding: 132 8260 131
Width: 235
VWidth: 0
Flags: HMW
LayerCount: 2
Fore
SplineSet
72.2998046875 108 m 0
 60.2998046875 108 63.7001953125 124 75.7001953125 124 c 0
 167.700195312 124 l 0
 179.700195312 124 176.299804688 108 164.299804688 108 c 0
 72.2998046875 108 l 0
EndSplineSet
EndChar

StartChar: percent
Encoding: 136 37 135
Width: 235
VWidth: 0
Flags: HMW
LayerCount: 2
Fore
SplineSet
95.98046875 205 m 0
 81.4296875 193 76.328125 169 85.77734375 157 c 0
 93.65234375 147 117.65234375 147 129.77734375 157 c 0
 144.328125 169 149.4296875 193 139.98046875 205 c 0
 132.10546875 215 108.10546875 215 95.98046875 205 c 0
78.8935546875 214 m 0
 103.14453125 234 145.14453125 234 160.893554688 214 c 0
 174.280273438 197 167.478515625 165 146.864257812 148 c 0
 122.61328125 128 80.61328125 128 64.8642578125 148 c 0
 51.478515625 165 58.2802734375 197 78.8935546875 214 c 0
80.1064453125 8 m 0
 66.7197265625 25 73.521484375 57 94.1357421875 74 c 0
 118.38671875 94 160.38671875 94 176.135742188 74 c 0
 189.521484375 57 182.719726562 25 162.106445312 8 c 0
 137.85546875 -12 95.85546875 -12 80.1064453125 8 c 0
101.01953125 17 m 0
 108.89453125 7 132.89453125 7 145.01953125 17 c 0
 159.5703125 29 164.671875 53 155.22265625 65 c 0
 147.34765625 75 123.34765625 75 111.22265625 65 c 0
 96.671875 53 91.5703125 29 101.01953125 17 c 0
57.9853515625 78 m 0
 42.7099609375 72 45.9609375 92 54.8115234375 96 c 0
 184.2265625 145 l 0
 199.501953125 151 196.250976562 131 187.401367188 127 c 0
 57.9853515625 78 l 0
EndSplineSet
EndChar

StartChar: perthousand
Encoding: 137 8240 136
Width: 235
VWidth: 0
Flags: HMW
LayerCount: 2
Fore
SplineSet
17.5361328125 90 m 0
 2.2607421875 84 5.51171875 104 14.3623046875 108 c 0
 169.2265625 145 l 0
 184.501953125 151 181.250976562 131 172.401367188 127 c 0
 17.5361328125 90 l 0
38.01953125 17 m 0
 45.89453125 7 57.89453125 7 70.01953125 17 c 0
 84.5703125 29 89.671875 53 80.22265625 65 c 0
 72.34765625 75 60.34765625 75 48.22265625 65 c 0
 33.671875 53 28.5703125 29 38.01953125 17 c 0
17.1064453125 8 m 0
 3.7197265625 25 10.521484375 57 31.1357421875 74 c 0
 55.38671875 94 85.38671875 94 101.135742188 74 c 0
 114.521484375 57 107.719726562 25 87.1064453125 8 c 0
 62.85546875 -12 32.85546875 -12 17.1064453125 8 c 0
38.8935546875 214 m 0
 63.14453125 234 93.14453125 234 108.893554688 214 c 0
 122.280273438 197 115.478515625 165 94.8642578125 148 c 0
 70.61328125 128 40.61328125 128 24.8642578125 148 c 0
 11.478515625 165 18.2802734375 197 38.8935546875 214 c 0
55.98046875 205 m 0
 41.4296875 193 36.328125 169 45.77734375 157 c 0
 53.65234375 147 65.65234375 147 77.77734375 157 c 0
 92.328125 169 97.4296875 193 87.98046875 205 c 0
 80.10546875 215 68.10546875 215 55.98046875 205 c 0
135.135742188 74 m 0
 162.38671875 94 185.38671875 94 205.135742188 74 c 0
 217.458984375 52 212.783203125 30 191.106445312 8 c 0
 167.85546875 -12 136.85546875 -12 121.106445312 8 c 0
 108.145507812 27 114.096679688 55 135.135742188 74 c 0
184.22265625 65 m 0
 175.34765625 75 164.34765625 75 152.22265625 65 c 0
 136.247070312 51 133.208007812 32 142.01953125 17 c 0
 149.89453125 7 160.89453125 7 174.01953125 17 c 0
 174.01953125 17 l 0
 189.208007812 32 193.247070312 51 184.22265625 65 c 0
EndSplineSet
EndChar

StartChar: degree
Encoding: 138 176 137
Width: 235
VWidth: 0
Flags: HMW
LayerCount: 2
Fore
SplineSet
95.5986328125 177 m 0
 101.8984375 169 115.8984375 169 125.598632812 177 c 0
 136.51171875 186 139.48828125 200 132.401367188 209 c 0
 126.1015625 217 112.1015625 217 102.401367188 209 c 0
 91.48828125 200 88.51171875 186 95.5986328125 177 c 0
148.951171875 221 m 0
 160.763671875 206 155.236328125 180 137.048828125 165 c 0
 117.647460938 149 91.6474609375 149 79.048828125 165 c 0
 67.236328125 180 72.763671875 206 90.951171875 221 c 0
 110.352539062 237 136.352539062 237 148.951171875 221 c 0
EndSplineSet
EndChar

StartChar: periodcentered
Encoding: 139 183 138
Width: 235
VWidth: 0
Flags: HMW
LayerCount: 2
Fore
SplineSet
138.111328125 68 m 0
 127.198242188 59 101.985351562 58 94.111328125 68 c 0
 83.0869140625 82 86.9130859375 100 103.888671875 114 c 0
 116.014648438 124 140.801757812 123 147.888671875 114 c 0
 158.913085938 100 155.086914062 82 138.111328125 68 c 0
EndSplineSet
EndChar

StartChar: bullet
Encoding: 140 8226 139
Width: 235
VWidth: 0
Flags: HMW
LayerCount: 2
Fore
SplineSet
74.9228515625 53 m 0
 58.38671875 74 65.61328125 108 91.0771484375 129 c 0
 116.541015625 150 150.541015625 150 167.077148438 129 c 0
 183.61328125 108 176.38671875 74 150.922851562 53 c 0
 125.458984375 32 91.458984375 32 74.9228515625 53 c 0
EndSplineSet
EndChar

StartChar: guilsinglleft
Encoding: 141 8249 140
Width: 235
VWidth: 0
Flags: HMW
LayerCount: 2
Fore
SplineSet
158.71484375 133 m 0
 126.55078125 104 l 0
 115.424804688 94 114.575195312 90 121.44921875 80 c 0
 141.28515625 51 l 0
 151.096679688 36 132.758789062 25 121.521484375 38 c 0
 93.32421875 70 l 0
 77.1494140625 88 78.8505859375 96 101.463867188 113 c 0
 144.478515625 146 l 0
 161.241210938 159 174.903320312 148 158.71484375 133 c 0
EndSplineSet
EndChar

StartChar: guilsinglright
Encoding: 142 8250 141
Width: 235
VWidth: 0
Flags: HMW
LayerCount: 2
Fore
SplineSet
145.463867188 113 m 0
 160.850585938 96 159.149414062 88 135.32421875 70 c 0
 93.521484375 38 l 0
 76.7587890625 25 63.0966796875 36 79.28515625 51 c 0
 111.44921875 80 l 0
 122.575195312 90 123.424804688 94 116.55078125 104 c 0
 96.71484375 133 l 0
 86.9033203125 148 105.241210938 159 116.478515625 146 c 0
 145.463867188 113 l 0
EndSplineSet
EndChar

StartChar: guillemotleft
Encoding: 143 171 142
Width: 235
VWidth: 0
Flags: HMW
LayerCount: 2
Fore
SplineSet
147.463867188 113 m 0
 190.478515625 146 l 0
 207.241210938 159 220.903320312 148 204.71484375 133 c 0
 172.55078125 104 l 0
 161.424804688 94 160.575195312 90 167.44921875 80 c 0
 187.28515625 51 l 0
 197.096679688 36 178.758789062 25 167.521484375 38 c 0
 139.32421875 70 l 0
 123.149414062 88 124.850585938 96 147.463867188 113 c 0
48.32421875 70 m 0
 32.1494140625 88 33.8505859375 96 56.4638671875 113 c 0
 99.478515625 146 l 0
 116.241210938 159 129.903320312 148 113.71484375 133 c 0
 81.55078125 104 l 0
 70.4248046875 94 69.5751953125 90 76.44921875 80 c 0
 96.28515625 51 l 0
 106.096679688 36 87.7587890625 25 76.521484375 38 c 0
 48.32421875 70 l 0
EndSplineSet
EndChar

StartChar: guillemotright
Encoding: 144 187 143
Width: 235
VWidth: 0
Flags: HMW
LayerCount: 2
Fore
SplineSet
191.463867188 113 m 0
 206.850585938 96 205.149414062 88 181.32421875 70 c 0
 139.521484375 38 l 0
 122.758789062 25 109.096679688 36 125.28515625 51 c 0
 157.44921875 80 l 0
 168.575195312 90 169.424804688 94 162.55078125 104 c 0
 142.71484375 133 l 0
 132.903320312 148 151.241210938 159 162.478515625 146 c 0
 191.463867188 113 l 0
90.32421875 70 m 0
 48.521484375 38 l 0
 31.7587890625 25 18.0966796875 36 34.28515625 51 c 0
 66.44921875 80 l 0
 77.5751953125 90 78.4248046875 94 71.55078125 104 c 0
 51.71484375 133 l 0
 41.9033203125 148 60.2412109375 159 71.478515625 146 c 0
 100.463867188 113 l 0
 115.850585938 96 114.149414062 88 90.32421875 70 c 0
EndSplineSet
EndChar

StartChar: paragraph
Encoding: 145 182 144
Width: 235
VWidth: 0
Flags: HMW
LayerCount: 2
Fore
SplineSet
139.590820312 223 m 0
 229.590820312 223 l 0
 244.590820312 223 239.915039062 201 224.915039062 201 c 0
 206.915039062 201 l 0
 150.799804688 -63 l 0
 147.611328125 -78 123.611328125 -78 126.799804688 -63 c 0
 182.915039062 201 l 0
 158.915039062 201 l 0
 102.799804688 -63 l 0
 99.611328125 -78 75.611328125 -78 78.7998046875 -63 c 0
 110.470703125 86 l 0
 91.470703125 86 73.5341796875 91 60.9345703125 107 c 0
 42.0361328125 131 52.0263671875 178 81.1279296875 202 c 0
 100.528320312 218 120.590820312 223 139.590820312 223 c 0
EndSplineSet
EndChar

StartChar: section
Encoding: 146 167 145
Width: 235
VWidth: 0
Flags: HMW
LayerCount: 2
Fore
SplineSet
140.888671875 47 m 0
 157.125 34 163.685546875 -1 137.009765625 -23 c 0
 110.333007812 -45 68.3330078125 -45 53.3720703125 -26 c 0
 38.41015625 -7 53.8740234375 14 60.8740234375 14 c 0
 76.8740234375 14 78.173828125 6 76.34765625 -12 c 0
 74.3720703125 -26 112.159179688 -27 120.34765625 -12 c 0
 125.473632812 -2 139.661132812 13 118.0625 29 c 0
 69.3525390625 68 l 0
 42.8154296875 89 65.8056640625 136 97.71875 145 c 0
 82.8447265625 155 79.921875 193 102.959960938 212 c 0
 129.63671875 234 174.63671875 234 188.810546875 216 c 0
 198.046875 203 196.646484375 187 186.946289062 179 c 0
 177.458007812 172 165.158203125 180 166.221679688 185 c 0
 172.748046875 211 145.0859375 222 125.897460938 207 c 0
 110.134765625 194 103.8828125 174 130.631835938 154 c 0
 169.254882812 124 l 0
 195.791992188 103 172.801757812 56 140.888671875 47 c 0
150.216796875 105 m 0
 114.956054688 132 l 0
 104.869140625 141 63.6416015625 107 88.603515625 88 c 0
 123.864257812 61 l 0
 133.951171875 52 175.177734375 86 150.216796875 105 c 0
EndSplineSet
EndChar

StartChar: plus
Encoding: 147 43 146
Width: 235
VWidth: 0
Flags: HMW
LayerCount: 2
Fore
SplineSet
182.768554688 80 m 0
 129.768554688 80 l 0
 117.65234375 23 l 0
 114.463867188 8 90.4638671875 8 93.65234375 23 c 0
 105.768554688 80 l 0
 52.7685546875 80 l 0
 37.7685546875 80 42.4443359375 102 57.4443359375 102 c 0
 110.444335938 102 l 0
 122.34765625 158 l 0
 125.536132812 173 149.536132812 173 146.34765625 158 c 0
 134.444335938 102 l 0
 187.444335938 102 l 0
 202.444335938 102 197.768554688 80 182.768554688 80 c 0
EndSplineSet
EndChar

StartChar: multiply
Encoding: 148 215 147
Width: 235
VWidth: 0
Flags: HMW
LayerCount: 2
Fore
SplineSet
182.522460938 32 m 0
 193.545898438 18 172.783203125 5 163.12109375 16 c 0
 116.662109375 75 l 0
 43.908203125 15 l 0
 31.783203125 5 19.18359375 21 31.0966796875 30 c 0
 103.850585938 90 l 0
 56.603515625 150 l 0
 48.7294921875 160 68.1298828125 176 76.0048828125 166 c 0
 123.250976562 106 l 0
 194.791992188 165 l 0
 208.342773438 177 223.3671875 163 208.81640625 151 c 0
 136.0625 91 l 0
 182.522460938 32 l 0
EndSplineSet
EndChar

StartChar: divide
Encoding: 149 247 148
Width: 235
VWidth: 0
Flags: HMW
LayerCount: 2
Fore
SplineSet
44.6572265625 102 m 0
 176.657226562 102 l 0
 191.657226562 102 186.98046875 80 171.98046875 80 c 0
 39.98046875 80 l 0
 24.98046875 80 29.6572265625 102 44.6572265625 102 c 0
132.159179688 142 m 0
 137.670898438 135 135.12109375 123 126.6328125 116 c 0
 118.14453125 109 108.14453125 109 102.6328125 116 c 0
 97.12109375 123 99.6708984375 135 108.159179688 142 c 0
 116.647460938 149 126.647460938 149 132.159179688 142 c 0
115.3671875 63 m 0
 120.87890625 56 118.329101562 44 109.840820312 37 c 0
 101.352539062 30 91.3525390625 30 85.8408203125 37 c 0
 80.3291015625 44 82.87890625 56 91.3671875 63 c 0
 99.85546875 70 109.85546875 70 115.3671875 63 c 0
EndSplineSet
EndChar

StartChar: plusminus
Encoding: 150 177 149
Width: 235
VWidth: 0
Flags: HMW
LayerCount: 2
Fore
SplineSet
42.9638671875 34 m 0
 172.963867188 34 l 0
 187.963867188 34 183.288085938 12 168.288085938 12 c 0
 38.2880859375 12 l 0
 23.2880859375 12 27.9638671875 34 42.9638671875 34 c 0
186.567382812 98 m 0
 133.567382812 98 l 0
 125.065429688 58 l 0
 121.876953125 43 97.876953125 43 101.065429688 58 c 0
 109.567382812 98 l 0
 56.5673828125 98 l 0
 41.5673828125 98 46.244140625 120 61.244140625 120 c 0
 114.244140625 120 l 0
 122.321289062 158 l 0
 125.509765625 173 149.509765625 173 146.321289062 158 c 0
 138.244140625 120 l 0
 191.244140625 120 l 0
 206.244140625 120 201.567382812 98 186.567382812 98 c 0
EndSplineSet
EndChar

StartChar: endash
Encoding: 151 8211 150
Width: 235
VWidth: 0
Flags: HMW
LayerCount: 2
Fore
SplineSet
148.662109375 76 m 0
 77.662109375 76 l 0
 62.662109375 76 67.337890625 98 82.337890625 98 c 0
 153.337890625 98 l 0
 168.337890625 98 163.662109375 76 148.662109375 76 c 0
EndSplineSet
EndChar

StartChar: emdash
Encoding: 152 8212 151
Width: 235
VWidth: 0
Flags: HMW
LayerCount: 2
Fore
SplineSet
2.337890625 98 m 0
 237.337890625 98 l 0
 252.337890625 98 247.662109375 76 232.662109375 76 c 0
 -2.337890625 76 l 0
 -17.337890625 76 -12.662109375 98 2.337890625 98 c 0
EndSplineSet
EndChar

StartChar: minus
Encoding: 153 8722 152
Width: 235
VWidth: 0
Flags: HMW
LayerCount: 2
Fore
SplineSet
180.662109375 76 m 0
 49.662109375 76 l 0
 34.662109375 76 39.337890625 98 54.337890625 98 c 0
 185.337890625 98 l 0
 200.337890625 98 195.662109375 76 180.662109375 76 c 0
EndSplineSet
EndChar

StartChar: bracketleft
Encoding: 154 91 153
Width: 235
VWidth: 0
Flags: HMW
LayerCount: 2
Fore
SplineSet
61.0732421875 -60 m 0
 122.926757812 231 l 0
 124.83984375 240 130.90234375 245 139.90234375 245 c 0
 178.90234375 245 l 0
 193.90234375 245 189.2265625 223 174.2265625 223 c 0
 145.2265625 223 l 0
 86.7734375 -52 l 0
 115.7734375 -52 l 0
 130.7734375 -52 126.09765625 -74 111.09765625 -74 c 0
 72.09765625 -74 l 0
 63.09765625 -74 59.16015625 -69 61.0732421875 -60 c 0
EndSplineSet
EndChar

StartChar: bracketright
Encoding: 155 93 154
Width: 235
VWidth: 0
Flags: HMW
LayerCount: 2
Fore
SplineSet
124.90234375 245 m 0
 163.90234375 245 l 0
 172.90234375 245 176.83984375 240 174.926757812 231 c 0
 113.073242188 -60 l 0
 111.16015625 -69 105.09765625 -74 96.09765625 -74 c 0
 57.09765625 -74 l 0
 42.09765625 -74 46.7734375 -52 61.7734375 -52 c 0
 90.7734375 -52 l 0
 149.2265625 223 l 0
 120.2265625 223 l 0
 105.2265625 223 109.90234375 245 124.90234375 245 c 0
EndSplineSet
EndChar

StartChar: dagger
Encoding: 156 8224 155
Width: 235
VWidth: 0
Flags: HMW
LayerCount: 2
Fore
SplineSet
126.173828125 171 m 0
 129.375976562 219 139.352539062 233 139.564453125 234 c 0
 142.752929688 249 166.752929688 249 163.564453125 234 c 0
 163.352539062 233 167.375976562 219 150.173828125 171 c 0
 187.173828125 171 l 0
 202.173828125 171 197.497070312 149 182.497070312 149 c 0
 145.497070312 149 l 0
 100.435546875 -63 l 0
 97.2470703125 -78 73.2470703125 -78 76.435546875 -63 c 0
 121.497070312 149 l 0
 84.4970703125 149 l 0
 69.4970703125 149 74.173828125 171 89.173828125 171 c 0
 126.173828125 171 l 0
EndSplineSet
EndChar

StartChar: daggerdbl
Encoding: 157 8225 156
Width: 235
VWidth: 0
Flags: HMW
LayerCount: 2
Fore
SplineSet
52.826171875 0 m 0
 37.826171875 0 42.5029296875 22 57.5029296875 22 c 0
 94.5029296875 22 l 0
 121.497070312 149 l 0
 84.4970703125 149 l 0
 69.4970703125 149 74.173828125 171 89.173828125 171 c 0
 126.173828125 171 l 0
 129.375976562 219 139.352539062 233 139.564453125 234 c 0
 142.752929688 249 166.752929688 249 163.564453125 234 c 0
 163.352539062 233 167.375976562 219 150.173828125 171 c 0
 187.173828125 171 l 0
 202.173828125 171 197.497070312 149 182.497070312 149 c 0
 145.497070312 149 l 0
 118.502929688 22 l 0
 155.502929688 22 l 0
 170.502929688 22 165.826171875 0 150.826171875 0 c 0
 113.826171875 0 l 0
 110.624023438 -48 100.647460938 -62 100.435546875 -63 c 0
 97.2470703125 -78 73.2470703125 -78 76.435546875 -63 c 0
 76.6474609375 -62 72.6240234375 -48 89.826171875 0 c 0
 52.826171875 0 l 0
EndSplineSet
EndChar

StartChar: braceleft
Encoding: 158 123 157
Width: 235
VWidth: 0
Flags: HMW
LayerCount: 2
Fore
SplineSet
123.758789062 122 m 0
 119.506835938 102 105.59375 93 93.1064453125 86 c 0
 102.618164062 79 112.705078125 70 108.454101562 50 c 0
 92.0869140625 -27 l 0
 87.8359375 -47 91.7734375 -52 105.7734375 -52 c 0
 120.7734375 -52 116.09765625 -74 101.09765625 -74 c 0
 72.09765625 -74 61.0732421875 -60 68.0869140625 -27 c 0
 84.4541015625 50 l 0
 88.705078125 70 83.3427734375 73 67.7685546875 75 c 0
 52.7685546875 75 57.4443359375 97 72.4443359375 97 c 0
 88.869140625 99 95.5068359375 102 99.7587890625 122 c 0
 115.913085938 198 l 0
 122.926757812 231 139.90234375 245 168.90234375 245 c 0
 183.90234375 245 179.2265625 223 164.2265625 223 c 0
 150.2265625 223 144.1640625 218 139.913085938 198 c 0
 123.758789062 122 l 0
EndSplineSet
EndChar

StartChar: braceright
Encoding: 159 125 158
Width: 235
VWidth: 0
Flags: HMW
LayerCount: 2
Fore
SplineSet
115.913085938 198 m 0
 120.1640625 218 116.2265625 223 102.2265625 223 c 0
 87.2265625 223 91.90234375 245 106.90234375 245 c 0
 135.90234375 245 146.926757812 231 139.913085938 198 c 0
 123.545898438 121 l 0
 119.294921875 101 124.657226562 98 140.231445312 96 c 0
 155.231445312 96 150.555664062 74 135.555664062 74 c 0
 119.130859375 72 112.493164062 69 108.241210938 49 c 0
 92.0869140625 -27 l 0
 85.0732421875 -60 68.09765625 -74 39.09765625 -74 c 0
 24.09765625 -74 28.7734375 -52 43.7734375 -52 c 0
 57.7734375 -52 63.8359375 -47 68.0869140625 -27 c 0
 84.2412109375 49 l 0
 88.4931640625 69 102.40625 78 114.893554688 85 c 0
 105.381835938 92 95.294921875 101 99.5458984375 121 c 0
 115.913085938 198 l 0
EndSplineSet
EndChar

StartChar: at
Encoding: 160 64 159
Width: 235
VWidth: 0
Flags: HMW
LayerCount: 2
Fore
SplineSet
92.916015625 200 m 0
 129.29296875 230 185.29296875 230 206.553710938 203 c 0
 216.002929688 191 217.327148438 169 216.051757812 163 c 0
 193.520507812 57 l 0
 199.182617188 46 l 0
 206.20703125 32 191.293945312 23 185.78125 30 c 0
 174.182617188 46 l 0
 151.994140625 31 121.505859375 24 102.607421875 48 c 0
 84.49609375 71 93.423828125 113 121.3125 136 c 0
 141.92578125 153 168.92578125 153 187.225585938 145 c 0
 190.3515625 155 198.176757812 173 186.365234375 188 c 0
 168.25390625 211 138.25390625 211 109.365234375 188 c 0
 64.2880859375 150 34.16796875 13 73.4287109375 -14 c 0
 104.540039062 -37 122.515625 -23 147.00390625 -16 c 0
 158.4921875 -9 164.515625 -23 153.602539062 -32 c 0
 120.926757812 -54 68.9267578125 -54 47.666015625 -27 c 0
 10.65625 20 39.5634765625 156 92.916015625 200 c 0
134.69921875 119 m 0
 120.1484375 107 113.346679688 75 122.795898438 63 c 0
 134.607421875 48 157.520507812 57 170.220703125 65 c 0
 182.336914062 122 l 0
 165.674804688 133 152.887695312 134 134.69921875 119 c 0
EndSplineSet
EndChar

StartChar: ampersand
Encoding: 161 38 160
Width: 235
VWidth: 0
Flags: HMW
LayerCount: 2
Fore
SplineSet
156.94921875 45 m 0
 167.060546875 22 l 0
 180.060546875 22 l 0
 195.060546875 22 190.384765625 0 175.384765625 0 c 0
 159.384765625 0 l 0
 157.384765625 0 154.171875 -1 152.384765625 0 c 0
 147.596679688 1 146.084960938 8 143.360351562 14 c 0
 142.209960938 18 139.84765625 21 137.485351562 24 c 0
 97.68359375 -8 48.9833984375 -16 26.9345703125 12 c 0
 4.099609375 41 13.0263671875 83 54.25390625 117 c 0
 67.591796875 128 76.654296875 133 83.5048828125 137 c 0
 72.48046875 151 52.408203125 193 93.634765625 227 c 0
 123.948242188 252 158.948242188 252 176.272460938 230 c 0
 203.044921875 196 156.905273438 153 114.654296875 133 c 0
 147.98828125 64 l 0
 154.688476562 72 158.963867188 78 165.301757812 89 c 0
 172.703125 105 175.166015625 126 186.954101562 125 c 0
 209.954101562 125 l 0
 224.954101562 125 220.27734375 103 205.27734375 103 c 0
 191.27734375 103 l 0
 182.239257812 84 168.775390625 63 156.94921875 45 c 0
130.524414062 43 m 0
 91.103515625 121 l 0
 83.25390625 117 76.1904296875 112 69.9150390625 106 c 0
 45.451171875 85 37.7998046875 49 51.1865234375 32 c 0
 70.8720703125 7 107.998046875 17 130.524414062 43 c 0
155.296875 216 m 0
 146.634765625 227 126.634765625 227 109.659179688 213 c 0
 87.8330078125 195 95.6689453125 166 107.842773438 148 c 0
 141.880859375 167 172.620117188 194 155.296875 216 c 0
EndSplineSet
EndChar

StartChar: asciicircum
Encoding: 162 94 161
Width: 235
VWidth: 0
Flags: HMW
LayerCount: 2
Fore
SplineSet
28.9228515625 169 m 0
 118.265625 260 l 0
 125.752929688 267 137.965820312 268 143.477539062 261 c 0
 194.709960938 168 l 0
 203.309570312 152 177.970703125 141 170.734375 154 c 0
 130.1015625 231 l 0
 128.951171875 235 122.951171875 235 119.1015625 231 c 0
 44.734375 154 l 0
 29.7587890625 140 13.734375 154 28.9228515625 169 c 0
EndSplineSet
EndChar

StartChar: bar
Encoding: 163 124 162
Width: 235
VWidth: 0
Flags: HMW
LayerCount: 2
Fore
SplineSet
100.647460938 -62 m 0
 97.2470703125 -78 73.2470703125 -78 76.6474609375 -62 c 0
 139.352539062 233 l 0
 142.752929688 249 166.752929688 249 163.352539062 233 c 0
 100.647460938 -62 l 0
EndSplineSet
EndChar

StartChar: brokenbar
Encoding: 164 166 163
Width: 235
VWidth: 0
Flags: HMW
LayerCount: 2
Fore
SplineSet
100.647460938 -62 m 0
 97.2470703125 -78 73.2470703125 -78 76.6474609375 -62 c 0
 99.81640625 47 l 0
 103.217773438 63 127.217773438 63 123.81640625 47 c 0
 100.647460938 -62 l 0
140.18359375 124 m 0
 136.782226562 108 112.782226562 108 116.18359375 124 c 0
 139.352539062 233 l 0
 142.752929688 249 166.752929688 249 163.352539062 233 c 0
 140.18359375 124 l 0
EndSplineSet
EndChar

StartChar: logicalnot
Encoding: 165 172 164
Width: 235
VWidth: 0
Flags: HMW
LayerCount: 2
Fore
SplineSet
14.6328125 80 m 0
 19.30859375 102 l 0
 237.30859375 102 l 0
 216.69140625 5 l 0
 194.69140625 5 l 0
 210.6328125 80 l 0
 14.6328125 80 l 0
EndSplineSet
EndChar

StartChar: copyright
Encoding: 166 169 165
Width: 235
VWidth: 0
Flags: HMW
LayerCount: 2
Fore
SplineSet
148.922851562 73 m 0
 114.971679688 45 88.18359375 46 72.4345703125 66 c 0
 56.6865234375 86 66.4638671875 132 97.990234375 158 c 0
 116.178710938 173 137.965820312 172 147.203125 159 c 0
 149.965820312 172 164.965820312 172 162.203125 159 c 0
 156.888671875 134 l 0
 154.125976562 121 141.125976562 121 141.888671875 134 c 0
 142.71484375 152 124.415039062 160 103.801757812 143 c 0
 84.4013671875 127 77.5986328125 95 89.4111328125 80 c 0
 101.22265625 65 120.22265625 65 142.048828125 83 c 0
 151.749023438 91 158.623046875 81 148.922851562 73 c 0
183.690429688 166 m 0
 160.854492188 195 110.854492188 195 75.6904296875 166 c 0
 38.1015625 135 27.8984375 87 52.3095703125 56 c 0
 75.1455078125 27 125.145507812 27 160.309570312 56 c 0
 197.8984375 87 208.1015625 135 183.690429688 166 c 0
168.18359375 46 m 0
 125.744140625 11 67.744140625 11 40.18359375 46 c 0
 11.8359375 82 24.1640625 140 67.81640625 176 c 0
 110.255859375 211 168.255859375 211 195.81640625 176 c 0
 224.1640625 140 211.8359375 82 168.18359375 46 c 0
EndSplineSet
EndChar

StartChar: registered
Encoding: 167 174 166
Width: 235
VWidth: 0
Flags: HMW
LayerCount: 2
Fore
SplineSet
116.48828125 118 m 0
 143.48828125 118 151.352539062 155 123.352539062 155 c 0
 114.352539062 155 l 0
 106.48828125 118 l 0
 116.48828125 118 l 0
127.149414062 107 m 0
 136.024414062 97 142.623046875 81 146.072265625 69 c 0
 154.072265625 69 l 0
 161.072265625 69 157.883789062 54 150.883789062 54 c 0
 136.883789062 54 l 0
 125.796875 63 122.299804688 103 110.299804688 103 c 0
 103.086914062 102 l 0
 96.072265625 69 l 0
 106.072265625 69 l 0
 113.072265625 69 109.883789062 54 102.883789062 54 c 0
 67.8837890625 54 l 0
 60.8837890625 54 64.072265625 69 71.072265625 69 c 0
 80.072265625 69 l 0
 98.3525390625 155 l 0
 92.3525390625 155 l 0
 81.3525390625 155 84.7529296875 171 95.7529296875 171 c 0
 140.752929688 171 l 0
 169.752929688 171 169.0625 116 127.149414062 107 c 0
160.309570312 56 m 0
 197.8984375 87 208.1015625 135 183.690429688 166 c 0
 160.854492188 195 110.854492188 195 75.6904296875 166 c 0
 38.1015625 135 27.8984375 87 52.3095703125 56 c 0
 75.1455078125 27 125.145507812 27 160.309570312 56 c 0
168.18359375 46 m 0
 125.744140625 11 67.744140625 11 40.18359375 46 c 0
 11.8359375 82 24.1640625 140 67.81640625 176 c 0
 110.255859375 211 168.255859375 211 195.81640625 176 c 0
 224.1640625 140 211.8359375 82 168.18359375 46 c 0
EndSplineSet
EndChar

StartChar: trademark
Encoding: 168 8482 167
Width: 235
VWidth: 0
Flags: HMW
LayerCount: 2
Fore
SplineSet
71.203125 112 m 0
 22.203125 112 l 0
 12.203125 112 14.1787109375 126 25.1787109375 126 c 0
 41.1787109375 126 l 0
 58.6083984375 208 l 0
 33.6083984375 208 l 0
 26.869140625 181 l 0
 23.744140625 171 9.53125 170 11.869140625 181 c 0
 19.521484375 217 l 0
 20.1591796875 220 20.796875 223 24.796875 223 c 0
 115.796875 223 l 0
 118.796875 223 120.372070312 221 119.734375 218 c 0
 112.08203125 182 l 0
 109.744140625 171 95.318359375 169 97.08203125 182 c 0
 100.608398438 208 l 0
 76.6083984375 208 l 0
 59.1787109375 126 l 0
 74.1787109375 126 l 0
 85.1787109375 126 82.203125 112 71.203125 112 c 0
112.203125 112 m 0
 100.203125 112 103.178710938 126 115.178710938 126 c 0
 132.608398438 208 l 0
 120.608398438 208 123.796875 223 135.796875 223 c 0
 155.796875 223 l 0
 157.796875 223 159.372070312 221 159.734375 218 c 0
 167.193359375 159 l 0
 199.734375 218 l 0
 201.372070312 221 202.796875 223 204.796875 223 c 0
 224.796875 223 l 0
 236.796875 223 233.608398438 208 221.608398438 208 c 0
 204.178710938 126 l 0
 208.178710938 126 l 0
 220.178710938 126 217.203125 112 205.203125 112 c 0
 181.203125 112 l 0
 169.203125 112 172.178710938 126 184.178710938 126 c 0
 198.845703125 195 l 0
 169.791992188 143 l 0
 166.091796875 135 154.87890625 134 154.791992188 143 c 0
 146.057617188 196 l 0
 131.178710938 126 l 0
 134.178710938 126 l 0
 146.178710938 126 143.203125 112 131.203125 112 c 0
 112.203125 112 l 0
EndSplineSet
EndChar

StartChar: ordmasculine
Encoding: 169 186 168
Width: 235
VWidth: 0
Flags: HMW
LayerCount: 2
Fore
SplineSet
107.096679688 203 m 0
 90.12109375 189 83.318359375 157 93.5556640625 144 c 0
 99.85546875 136 117.85546875 136 128.555664062 144 c 0
 145.318359375 157 152.12109375 189 141.096679688 203 c 0
 134.796875 211 116.796875 211 107.096679688 203 c 0
156.859375 216 m 0
 174.970703125 193 166.681640625 154 138.791992188 131 c 0
 119.391601562 115 89.3916015625 115 76.7919921875 131 c 0
 60.46875 153 69.18359375 194 94.859375 216 c 0
 114.260742188 232 144.260742188 232 156.859375 216 c 0
136.58984375 83 m 0
 59.58984375 83 l 0
 44.58984375 83 49.265625 105 64.265625 105 c 0
 141.265625 105 l 0
 156.265625 105 151.58984375 83 136.58984375 83 c 0
EndSplineSet
EndChar

StartChar: ordfeminine
Encoding: 170 170 169
Width: 235
VWidth: 0
Flags: HMW
LayerCount: 2
Fore
SplineSet
133.072265625 169 m 0
 108.498046875 171 89.498046875 171 85.884765625 154 c 0
 80.9326171875 126 112.6328125 134 129.884765625 154 c 0
 133.072265625 169 l 0
134.411132812 180 m 0
 148.212890625 212 125.275390625 217 105.9375 206 c 0
 91.2373046875 198 88.787109375 210 97.275390625 217 c 0
 116.676757812 233 162.61328125 228 156.874023438 201 c 0
 143.696289062 139 l 0
 152.696289062 139 l 0
 162.696289062 139 159.083007812 122 149.083007812 122 c 0
 132.083007812 122 l 0
 119.083007812 122 124.995117188 131 126.908203125 140 c 0
 122.5078125 124 84.5322265625 110 72.7197265625 125 c 0
 60.908203125 140 65.3720703125 161 83.560546875 176 c 0
 96.8984375 187 123.260742188 184 134.411132812 180 c 0
140.79296875 83 m 0
 63.79296875 83 l 0
 48.79296875 83 53.46875 105 68.46875 105 c 0
 145.46875 105 l 0
 160.46875 105 155.79296875 83 140.79296875 83 c 0
EndSplineSet
EndChar

StartChar: numbersign
Encoding: 171 35 170
Width: 235
VWidth: 0
Flags: HMW
LayerCount: 2
Fore
SplineSet
189.782226562 102 m 0
 174.782226562 102 l 0
 155.85546875 60 l 0
 180.85546875 60 l 0
 195.85546875 60 191.178710938 38 176.178710938 38 c 0
 146.178710938 38 l 0
 100.922851562 -62 l 0
 91.884765625 -81 72.16015625 -75 77.9228515625 -62 c 0
 123.178710938 38 l 0
 75.1787109375 38 l 0
 29.9228515625 -62 l 0
 20.884765625 -81 1.16015625 -75 6.9228515625 -62 c 0
 51.1787109375 38 l 0
 42.1787109375 38 l 0
 27.1787109375 38 31.85546875 60 46.85546875 60 c 0
 60.85546875 60 l 0
 79.7822265625 102 l 0
 55.7822265625 102 l 0
 40.7822265625 102 45.458984375 124 60.458984375 124 c 0
 90.458984375 124 l 0
 135.077148438 221 l 0
 144.115234375 240 163.83984375 234 158.077148438 221 c 0
 113.458984375 124 l 0
 161.458984375 124 l 0
 206.077148438 221 l 0
 215.115234375 240 234.83984375 234 229.077148438 221 c 0
 184.458984375 124 l 0
 194.458984375 124 l 0
 209.458984375 124 204.782226562 102 189.782226562 102 c 0
132.85546875 60 m 0
 151.782226562 102 l 0
 103.782226562 102 l 0
 84.85546875 60 l 0
 132.85546875 60 l 0
EndSplineSet
EndChar

StartChar: currency
Encoding: 172 164 171
Width: 235
VWidth: 0
Flags: HMW
LayerCount: 2
Fore
SplineSet
73.029296875 70 m 0
 88.7783203125 50 122.778320312 50 147.029296875 70 c 0
 172.493164062 91 179.719726562 125 163.18359375 146 c 0
 147.434570312 166 113.434570312 166 89.18359375 146 c 0
 63.7197265625 125 56.4931640625 91 73.029296875 70 c 0
166.966796875 65 m 0
 184.439453125 39 l 0
 192.889648438 27 180.763671875 17 169.889648438 27 c 0
 147.565429688 49 l 0
 125.739257812 31 77.7392578125 31 64.3525390625 48 c 0
 32.6767578125 26 l 0
 17.55078125 16 9.6767578125 26 23.2275390625 38 c 0
 52.75390625 64 l 0
 35.7919921875 83 45.9951171875 131 69.24609375 151 c 0
 52.7724609375 177 l 0
 44.3232421875 189 56.44921875 199 67.3232421875 189 c 0
 88.6474609375 167 l 0
 110.47265625 185 158.47265625 185 172.647460938 167 c 0
 204.323242188 189 l 0
 219.44921875 199 227.323242188 189 213.772460938 177 c 0
 185.24609375 151 l 0
 200.208007812 132 190.004882812 84 166.966796875 65 c 0
EndSplineSet
EndChar

StartChar: yen
Encoding: 173 165 172
Width: 235
VWidth: 0
Flags: HMW
LayerCount: 2
Fore
SplineSet
176.990234375 55 m 0
 119.990234375 55 l 0
 112.9765625 22 l 0
 154.9765625 22 l 0
 169.9765625 22 165.299804688 0 150.299804688 0 c 0
 42.2998046875 0 l 0
 27.2998046875 0 31.9765625 22 46.9765625 22 c 0
 88.9765625 22 l 0
 95.990234375 55 l 0
 38.990234375 55 l 0
 23.990234375 55 28.6669921875 77 43.6669921875 77 c 0
 100.666992188 77 l 0
 93.7685546875 101 l 0
 48.7685546875 101 l 0
 33.7685546875 101 38.4443359375 123 53.4443359375 123 c 0
 87.4443359375 123 l 0
 60.0234375 201 l 0
 48.0234375 201 l 0
 33.0234375 201 37.7001953125 223 52.7001953125 223 c 0
 117.700195312 223 l 0
 132.700195312 223 128.0234375 201 113.0234375 201 c 0
 92.0234375 201 l 0
 119.618164062 105 l 0
 197.0234375 201 l 0
 170.0234375 201 l 0
 155.0234375 201 159.700195312 223 174.700195312 223 c 0
 239.700195312 223 l 0
 254.700195312 223 250.0234375 201 235.0234375 201 c 0
 224.0234375 201 l 0
 159.444335938 123 l 0
 191.444335938 123 l 0
 206.444335938 123 201.768554688 101 186.768554688 101 c 0
 140.768554688 101 l 0
 124.666992188 77 l 0
 181.666992188 77 l 0
 196.666992188 77 191.990234375 55 176.990234375 55 c 0
EndSplineSet
EndChar

StartChar: cent
Encoding: 174 162 173
Width: 235
VWidth: 0
Flags: HMW
LayerCount: 2
Fore
SplineSet
198.099609375 37 m 0
 166.572265625 11 136.171875 -5 119.384765625 -4 c 0
 110.244140625 -47 l 0
 106.41796875 -65 86.41796875 -65 90.244140625 -47 c 0
 99.384765625 -4 l 0
 80.384765625 -4 56.66015625 2 44.84765625 17 c 0
 14.1376953125 56 26.4658203125 114 73.755859375 153 c 0
 91.9443359375 168 118.431640625 175 137.431640625 175 c 0
 143.595703125 204 l 0
 147.634765625 223 167.634765625 223 163.595703125 204 c 0
 157.431640625 175 l 0
 176.219726562 174 186.880859375 163 198.905273438 149 c 0
 202.306640625 165 l 0
 205.282226562 179 225.282226562 179 222.306640625 165 c 0
 209.978515625 107 l 0
 207.21484375 94 187.21484375 94 189.978515625 107 c 0
 190.616210938 110 183.654296875 129 179.716796875 134 c 0
 158.456054688 161 117.456054688 161 84.716796875 134 c 0
 55.6162109375 110 44.98828125 60 63.88671875 36 c 0
 85.9345703125 8 135.934570312 8 188.075195312 51 c 0
 198.98828125 60 210.224609375 47 198.099609375 37 c 0
EndSplineSet
EndChar

StartChar: dollar
Encoding: 175 36 174
Width: 235
VWidth: 0
Flags: HMW
LayerCount: 2
Fore
SplineSet
159.411132812 72 m 0
 163.44921875 91 146.51171875 96 128.787109375 102 c 0
 108.971679688 37 l 0
 133.333984375 34 155.159179688 52 159.411132812 72 c 0
102.870117188 13 m 0
 95.34375 -13 l 0
 88.6044921875 -40 l 0
 85.416015625 -55 63.416015625 -55 66.6044921875 -40 c 0
 69.517578125 -31 72.642578125 -21 75.5556640625 -12 c 0
 78.46875 -3 80.3818359375 6 83.294921875 15 c 0
 67.357421875 20 56.357421875 20 51.6328125 26 c 0
 49.294921875 15 24.01953125 9 28.6962890625 31 c 0
 38.1982421875 71 l 0
 41.38671875 86 61.38671875 86 58.1982421875 71 c 0
 53.0966796875 47 68.18359375 38 90.7587890625 36 c 0
 112.48828125 110 l 0
 77.2509765625 123 57.2265625 137 63.81640625 168 c 0
 71.6806640625 205 107.506835938 223 145.506835938 223 c 0
 150.395507812 246 l 0
 153.583984375 261 175.583984375 261 172.395507812 246 c 0
 165.08203125 221 l 0
 175.506835938 223 184.231445312 217 190.168945312 212 c 0
 194.20703125 231 218.20703125 231 215.018554688 216 c 0
 203.94140625 178 l 0
 200.541015625 162 178.541015625 162 181.303710938 175 c 0
 184.91796875 192 171.04296875 202 159.830078125 201 c 0
 136.313476562 128 l 0
 186.337890625 114 190.086914062 94 183.922851562 65 c 0
 179.458984375 44 146.870117188 13 102.870117188 13 c 0
119.588867188 134 m 0
 139.255859375 203 l 0
 124.04296875 202 94.193359375 198 88.4541015625 171 c 0
 85.265625 156 97.2900390625 142 119.588867188 134 c 0
EndSplineSet
EndChar

StartChar: less
Encoding: 187 60 186
Width: 235
VWidth: 0
Flags: HMW
LayerCount: 2
Fore
SplineSet
60.0244140625 98 m 0
 48.5751953125 110 49.4248046875 114 65.9755859375 126 c 0
 183.830078125 210 l 0
 197.956054688 220 207.342773438 203 194.216796875 193 c 0
 80 112 l 0
 159.783203125 31 l 0
 168.657226562 21 152.043945312 4 142.169921875 14 c 0
 60.0244140625 98 l 0
EndSplineSet
EndChar

StartChar: greater
Encoding: 188 62 187
Width: 235
VWidth: 0
Flags: HMW
LayerCount: 2
Fore
SplineSet
173.975585938 126 m 0
 185.424804688 114 184.575195312 110 168.024414062 98 c 0
 50.169921875 14 l 0
 36.0439453125 4 26.6572265625 21 39.783203125 31 c 0
 154 112 l 0
 74.216796875 193 l 0
 65.3427734375 203 81.9560546875 220 91.830078125 210 c 0
 173.975585938 126 l 0
EndSplineSet
EndChar

StartChar: mu
Encoding: 189 181 188
Width: 235
VWidth: 0
Flags: HMW
LayerCount: 2
Fore
SplineSet
66.4248046875 52 m 0
 65.5751953125 48 64.5986328125 34 69.32421875 28 c 0
 86.6474609375 6 125.34765625 14 158.575195312 48 c 0
 181.956054688 158 l 0
 187.057617188 182 211.057617188 182 205.956054688 158 c 0
 180.024414062 36 l 0
 175.560546875 15 187.135742188 13 203.9609375 31 c 0
 210.44921875 38 225.536132812 29 216.7734375 16 c 0
 193.971679688 -16 144.609375 -13 153.686523438 25 c 0
 121.309570312 -5 75.7587890625 -17 54.6474609375 6 c 0
 47.2080078125 -29 l 0
 46.08203125 -39 49.4306640625 -75 27.2177734375 -76 c 0
 7.4306640625 -75 22.08203125 -39 25.2080078125 -29 c 0
 64.9560546875 158 l 0
 70.0576171875 182 94.0576171875 182 88.9560546875 158 c 0
 66.4248046875 52 l 0
EndSplineSet
EndChar

StartChar: slash
Encoding: 190 47 189
Width: 235
VWidth: 0
Flags: HMW
LayerCount: 2
Fore
SplineSet
7.498046875 -58 m 0
 210.626953125 239 l 0
 219.177734375 251 238.690429688 244 227.501953125 229 c 0
 24.373046875 -68 l 0
 15.822265625 -80 -3.6904296875 -73 7.498046875 -58 c 0
EndSplineSet
EndChar

StartChar: backslash
Encoding: 191 92 190
Width: 235
VWidth: 0
Flags: HMW
LayerCount: 2
Fore
SplineSet
147.373046875 -68 m 0
 67.501953125 229 l 0
 64.2646484375 242 85.390625 252 88.626953125 239 c 0
 168.498046875 -58 l 0
 171.735351562 -71 150.609375 -81 147.373046875 -68 c 0
EndSplineSet
EndChar

StartChar: AE
Encoding: 192 198 191
Width: 235
VWidth: 0
Flags: HMW
LayerCount: 2
Fore
SplineSet
227.047851562 187 m 0
 223.0234375 201 l 0
 177.0234375 201 l 0
 162.14453125 131 l 0
 185.14453125 131 l 0
 188.545898438 147 l 0
 191.734375 162 211.734375 162 208.545898438 147 c 0
 196.642578125 91 l 0
 193.454101562 76 173.454101562 76 176.642578125 91 c 0
 180.46875 109 l 0
 157.46875 109 l 0
 138.9765625 22 l 0
 187.9765625 22 l 0
 197.376953125 38 l 0
 204.352539062 52 214.927734375 50 211.52734375 34 c 0
 207.701171875 16 l 0
 204.299804688 0 200.299804688 0 190.299804688 0 c 0
 86.2998046875 0 l 0
 71.2998046875 0 75.9765625 22 90.9765625 22 c 0
 114.9765625 22 l 0
 124.966796875 69 l 0
 57.966796875 69 l 0
 28.9765625 22 l 0
 40.9765625 22 l 0
 55.9765625 22 51.2998046875 0 36.2998046875 0 c 0
 -9.7001953125 0 l 0
 -24.7001953125 0 -20.0234375 22 -5.0234375 22 c 0
 5.9765625 22 l 0
 119.0234375 201 l 0
 95.0234375 201 l 0
 80.0234375 201 84.7001953125 223 99.7001953125 223 c 0
 234.700195312 223 l 0
 244.700195312 223 251.700195312 223 248.298828125 207 c 0
 244.47265625 189 l 0
 241.709960938 176 230.072265625 173 227.047851562 187 c 0
126.560546875 180 m 0
 71.642578125 91 l 0
 129.642578125 91 l 0
 148.560546875 180 l 0
 153.44921875 203 140.661132812 204 126.560546875 180 c 0
EndSplineSet
EndChar

StartChar: OE
Encoding: 193 338 192
Width: 235
VWidth: 0
Flags: HMW
LayerCount: 2
Fore
SplineSet
208.604492188 34 m 0
 204.778320312 16 l 0
 201.377929688 0 196.377929688 0 186.377929688 0 c 0
 105.377929688 0 l 0
 74.46484375 -9 49.46484375 -9 27.416015625 19 c 0
 -9.59375 66 9.5361328125 156 66.5263671875 203 c 0
 100.478515625 231 125.478515625 231 152.778320312 223 c 0
 233.778320312 223 l 0
 243.778320312 223 248.778320312 223 245.376953125 207 c 0
 241.55078125 189 l 0
 238.788085938 176 229.150390625 173 226.125976562 187 c 0
 222.1015625 201 l 0
 174.1015625 201 l 0
 159.22265625 131 l 0
 182.22265625 131 l 0
 185.624023438 147 l 0
 188.811523438 162 208.811523438 162 205.624023438 147 c 0
 193.720703125 91 l 0
 190.532226562 76 170.532226562 76 173.720703125 91 c 0
 177.546875 109 l 0
 154.546875 109 l 0
 136.053710938 22 l 0
 184.053710938 22 l 0
 193.455078125 38 l 0
 200.430664062 52 212.005859375 50 208.604492188 34 c 0
146.275390625 183 m 0
 151.1640625 206 115.290039062 216 87.4013671875 193 c 0
 35.2607421875 150 18.681640625 72 52.5419921875 29 c 0
 70.6533203125 6 111.416015625 19 115.666992188 39 c 0
 146.275390625 183 l 0
EndSplineSet
EndChar

StartChar: Thorn
Encoding: 195 222 194
Width: 235
VWidth: 0
Flags: HMW
LayerCount: 2
Fore
SplineSet
44.7001953125 223 m 0
 154.700195312 223 l 0
 169.700195312 223 165.0234375 201 150.0234375 201 c 0
 97.0234375 201 l 0
 92.34765625 179 l 0
 141.34765625 179 l 0
 243.34765625 179 217.840820312 59 115.840820312 59 c 0
 66.8408203125 59 l 0
 58.9765625 22 l 0
 111.9765625 22 l 0
 126.9765625 22 122.299804688 0 107.299804688 0 c 0
 -2.7001953125 0 l 0
 -17.7001953125 0 -13.0234375 22 1.9765625 22 c 0
 34.9765625 22 l 0
 73.0234375 201 l 0
 40.0234375 201 l 0
 25.0234375 201 29.7001953125 223 44.7001953125 223 c 0
139.096679688 159 m 0
 88.0966796875 159 l 0
 71.091796875 79 l 0
 122.091796875 79 l 0
 191.091796875 79 208.096679688 159 139.096679688 159 c 0
EndSplineSet
EndChar

StartChar: Eng
Encoding: 196 330 195
Width: 235
VWidth: 0
Flags: HMW
LayerCount: 2
Fore
SplineSet
203.604492188 217 m 0
 226.502929688 193 223.9765625 167 213.774414062 119 c 0
 204.421875 75 195.21875 27 167.330078125 4 c 0
 145.716796875 -13 108.56640625 -9 98.9052734375 2 c 0
 98.1171875 3 97.9677734375 7 98.1806640625 8 c 0
 98.60546875 10 100.880859375 16 102.305664062 18 c 0
 102.305664062 18 103.305664062 18 103.305664062 18 c 0
 114.21875 27 131.905273438 2 155.943359375 21 c 0
 169.494140625 33 177.532226562 52 183.059570312 78 c 0
 189.010742188 106 203.063476562 158 197.314453125 178 c 0
 195.58984375 184 192.865234375 190 189.715820312 194 c 0
 167.455078125 221 131.478515625 207 92.6767578125 175 c 0
 86.6142578125 170 81.5517578125 165 75.4892578125 160 c 0
 46.15625 22 l 0
 55.15625 22 l 0
 61.15625 22 66.15625 22 67.5185546875 19 c 0
 69.66796875 15 69.9677734375 7 64.9052734375 2 c 0
 62.4794921875 0 58.4794921875 0 52.4794921875 0 c 0
 9.4794921875 0 l 0
 3.4794921875 0 -0.5205078125 0 -2.0947265625 2 c 0
 -6.45703125 5 -3.33203125 15 1.5185546875 19 c 0
 4.943359375 21 8.15625 22 15.15625 22 c 0
 24.15625 22 l 0
 62.2041015625 201 l 0
 55.2041015625 201 l 0
 47.2041015625 201 43.2041015625 201 40.8408203125 204 c 0
 36.478515625 207 39.6044921875 217 44.455078125 221 c 0
 46.8798828125 223 50.8798828125 223 55.8798828125 223 c 0
 88.8798828125 223 l 0
 81.4404296875 188 l 0
 123.3046875 225 174.91796875 242 203.604492188 217 c 0
EndSplineSet
EndChar

StartChar: Hbar
Encoding: 197 294 196
Width: 235
VWidth: 0
Flags: HMW
LayerCount: 2
Fore
SplineSet
48.2216796875 169 m 0
 38.2216796875 169 40.560546875 180 50.560546875 180 c 0
 226.560546875 180 l 0
 235.560546875 180 233.221679688 169 224.221679688 169 c 0
 48.2216796875 169 l 0
EndSplineSet
Refer: 71 72 N 1 0 0 1 0 0 0
EndChar

StartChar: Lslash
Encoding: 198 321 197
Width: 235
VWidth: 0
Flags: HMW
LayerCount: 2
Fore
SplineSet
21.966796875 69 m 0
 2.8408203125 59 -3.908203125 79 16.2177734375 89 c 0
 125.545898438 147 l 0
 142.458984375 156 148.419921875 137 132.506835938 128 c 0
 21.966796875 69 l 0
EndSplineSet
Refer: 75 76 N 1 0 0 1 0 0 0
EndChar

StartChar: Oslash
Encoding: 199 216 198
Width: 235
VWidth: 0
Flags: HMW
LayerCount: 2
Fore
SplineSet
38.111328125 -12 m 0
 27.1357421875 -26 11.8359375 -18 23.0244140625 -3 c 0
 35.8505859375 15 l 0
 -7.072265625 53 14.8212890625 156 66.9609375 199 c 0
 113.038085938 237 158.61328125 235 185 218 c 0
 201.888671875 241 l 0
 212.864257812 255 228.1640625 247 216.975585938 232 c 0
 199.874023438 208 l 0
 241.796875 170 219.478515625 65 167.338867188 22 c 0
 121.26171875 -16 76.111328125 -12 50.724609375 5 c 0
 38.111328125 -12 l 0
170.9609375 199 m 0
 155.51171875 211 119.362304688 215 87.8359375 189 c 0
 36.908203125 147 30.9033203125 67 51.314453125 36 c 0
 170.9609375 199 l 0
63.55078125 23 m 0
 80.7880859375 10 116.9375 6 148.463867188 32 c 0
 199.391601562 74 205.395507812 154 184.198242188 186 c 0
 63.55078125 23 l 0
EndSplineSet
EndChar

StartChar: cedilla
Encoding: 210 184 209
Width: 235
VWidth: 0
Flags: HMW
LayerCount: 2
Fore
SplineSet
160.391601562 -45 m 0
 153.58984375 -77 114.377929688 -78 94.6533203125 -72 c 0
 114.377929688 -78 153.58984375 -77 160.391601562 -45 c 0
100.329101562 -50 m 0
 110.75390625 -48 125.778320312 -62 132.116210938 -51 c 0
 125.778320312 -62 110.75390625 -48 100.329101562 -50 c 0
100.329101562 -50 m 0
 83.69140625 -53 78.7158203125 -67 94.6533203125 -72 c 0
 114.377929688 -78 153.58984375 -77 160.391601562 -45 c 0
 162.942382812 -33 160.068359375 -23 144.981445312 -14 c 0
 160.068359375 -23 162.942382812 -33 160.391601562 -45 c 0
 162.942382812 -33 160.068359375 -23 144.981445312 -14 c 0
 153.95703125 0 l 0
 127.95703125 0 l 0
 116.91796875 -19 l 0
 114.879882812 -38 146.217773438 -27 132.116210938 -51 c 0
 146.217773438 -27 114.879882812 -38 116.91796875 -19 c 0
 114.879882812 -38 146.217773438 -27 132.116210938 -51 c 0
 125.778320312 -62 110.75390625 -48 100.329101562 -50 c 0
100.329101562 -50 m 0
 83.69140625 -53 78.7158203125 -67 94.6533203125 -72 c 0
 78.7158203125 -67 83.69140625 -53 100.329101562 -50 c 0
EndSplineSet
EndChar

StartChar: afii00208
Encoding: 217 8213 214
Width: 235
VWidth: 0
Flags: HMW
LayerCount: 2
Fore
SplineSet
135.985351562 8 m 0
 122.598632812 25 129.401367188 57 150.014648438 74 c 0
 174.265625 94 204.265625 94 220.014648438 74 c 0
 233.401367188 57 226.598632812 25 205.985351562 8 c 0
 181.734375 -12 151.734375 -12 135.985351562 8 c 0
156.8984375 17 m 0
 164.7734375 7 176.7734375 7 188.8984375 17 c 0
 203.44921875 29 208.55078125 53 199.1015625 65 c 0
 191.2265625 75 179.2265625 75 167.1015625 65 c 0
 152.55078125 53 147.44921875 29 156.8984375 17 c 0
EndSplineSet
EndChar

StartChar: Euro
Encoding: 219 8364 216
Width: 235
VWidth: 0
Flags: HMW
LayerCount: 2
Fore
SplineSet
165.948242188 36 m 0
 185.13671875 51 193.348632812 52 196.499023438 48 c 0
 199.435546875 43 192.310546875 33 181.609375 25 c 0
 176.759765625 21 169.697265625 16 163.846679688 12 c 0
 118.682617188 -17 61.3828125 -9 35.3974609375 24 c 0
 21.2236328125 42 17.048828125 60 20.0634765625 93 c 0
 5.0634765625 93 l 0
 2.0634765625 93 -0.7236328125 94 -1.5107421875 95 c 0
 -3.0859375 97 -2.236328125 101 0.189453125 103 c 0
 1.4013671875 104 4.6142578125 105 7.6142578125 105 c 0
 22.6142578125 105 l 0
 26.2275390625 122 l 0
 11.2275390625 122 l 0
 7.2275390625 122 5.4404296875 123 4.6533203125 124 c 0
 3.078125 126 3.9287109375 130 6.140625 131 c 0
 7.56640625 133 9.7783203125 134 13.7783203125 134 c 0
 29.7783203125 134 l 0
 37.73046875 162 52.40625 184 73.01953125 201 c 0
 116.671875 237 177.096679688 239 208.232421875 202 c 0
 210.5703125 213 l 0
 211.420898438 217 213.05859375 220 215.483398438 222 c 0
 218.12109375 225 229.908203125 224 231.483398438 222 c 0
 233.05859375 220 233.420898438 217 232.5703125 213 c 0
 223.005859375 168 l 0
 222.155273438 164 220.517578125 161 218.092773438 159 c 0
 215.666992188 157 202.2421875 155 200.517578125 161 c 0
 199.79296875 167 199.91796875 177 194.193359375 183 c 0
 171.358398438 212 121.995117188 215 85.619140625 185 c 0
 68.6435546875 171 59.455078125 156 51.7783203125 134 c 0
 157.778320312 134 l 0
 160.778320312 134 162.56640625 133 163.353515625 132 c 0
 164.928710938 130 164.078125 126 161.653320312 124 c 0
 160.440429688 123 158.227539062 122 155.227539062 122 c 0
 48.2275390625 122 l 0
 44.6142578125 105 l 0
 145.614257812 105 l 0
 148.614257812 105 150.401367188 104 152.189453125 103 c 0
 153.763671875 101 152.9140625 97 150.489257812 95 c 0
 148.276367188 94 146.063476562 93 143.063476562 93 c 0
 43.0634765625 93 l 0
 40.599609375 72 44.3486328125 52 54.373046875 38 c 0
 79.7841796875 7 131.784179688 7 165.948242188 36 c 0
EndSplineSet
EndChar

StartChar: exclamdown
Encoding: 220 161 217
Width: 235
VWidth: 0
Flags: HMW
LayerCount: 2
Fore
SplineSet
166.779296875 168 m 0
 174.654296875 158 172.31640625 147 160.190429688 137 c 0
 148.065429688 127 122.065429688 127 114.190429688 137 c 0
 106.31640625 147 108.654296875 158 120.779296875 168 c 0
 132.905273438 178 158.905273438 178 166.779296875 168 c 0
111.649414062 78 m 0
 115.900390625 98 141.900390625 98 137.649414062 78 c 0
 113.655273438 -49 l 0
 109.616210938 -68 77.6162109375 -68 81.6552734375 -49 c 0
 111.649414062 78 l 0
EndSplineSet
EndChar

StartChar: dotlessj
Encoding: 221 567 218
Width: 235
VWidth: 0
Flags: HMW
LayerCount: 2
Fore
SplineSet
132.197265625 -13 m 0
 166.630859375 149 l 0
 77.630859375 149 l 0
 62.630859375 149 67.3076171875 171 82.3076171875 171 c 0
 181.307617188 171 l 0
 189.307617188 171 194.032226562 165 192.33203125 157 c 0
 156.197265625 -13 l 0
 151.946289062 -33 143.7578125 -48 122.14453125 -65 c 0
 107.380859375 -78 68.16796875 -79 30.443359375 -73 c 0
 15.443359375 -73 20.1201171875 -51 35.1201171875 -51 c 0
 73.482421875 -54 99.26953125 -55 117.458007812 -40 c 0
 128.37109375 -31 130.708984375 -20 132.197265625 -13 c 0
EndSplineSet
EndChar

StartChar: kgreenlandic
Encoding: 222 312 219
Width: 235
VWidth: 0
Flags: HMW
LayerCount: 2
Fore
SplineSet
146.497070312 149 m 0
 131.497070312 149 136.173828125 171 151.173828125 171 c 0
 213.173828125 171 l 0
 228.173828125 171 223.497070312 149 208.497070312 149 c 0
 197.497070312 149 l 0
 111.294921875 101 l 0
 178.502929688 22 l 0
 192.502929688 22 l 0
 207.502929688 22 202.826171875 0 187.826171875 0 c 0
 129.826171875 0 l 0
 114.826171875 0 119.502929688 22 134.502929688 22 c 0
 145.502929688 22 l 0
 92.744140625 89 l 0
 76.6181640625 79 l 0
 62.8017578125 14 l 0
 60.8896484375 5 54.826171875 0 45.826171875 0 c 0
 12.826171875 0 l 0
 -2.173828125 0 2.5029296875 22 17.5029296875 22 c 0
 40.5029296875 22 l 0
 67.4970703125 149 l 0
 44.4970703125 149 l 0
 29.4970703125 149 34.173828125 171 49.173828125 171 c 0
 82.173828125 171 l 0
 91.173828125 171 95.1103515625 166 93.1982421875 157 c 0
 81.294921875 101 l 0
 162.497070312 149 l 0
 146.497070312 149 l 0
EndSplineSet
EndChar

StartChar: germandbls
Encoding: 223 223 220
Width: 235
VWidth: 0
Flags: HMW
LayerCount: 2
Fore
SplineSet
13.935546875 0 m 0
 -1.064453125 0 3.611328125 22 18.611328125 22 c 0
 38.611328125 22 l 0
 71.3447265625 176 l 0
 74.3212890625 190 81.1474609375 208 105.3984375 228 c 0
 133.287109375 251 177.287109375 251 195.3984375 228 c 0
 219.80859375 197 184.54296875 144 164.905273438 141 c 0
 172.48046875 139 188.630859375 135 197.291992188 124 c 0
 219.340820312 96 209.775390625 51 175.82421875 23 c 0
 155.2109375 6 133.935546875 0 94.935546875 0 c 0
 76.935546875 0 81.611328125 22 99.611328125 22 c 0
 106.82421875 23 140.186523438 20 163.224609375 39 c 0
 183.838867188 56 190.065429688 90 177.465820312 106 c 0
 160.142578125 128 135.291992188 124 119.654296875 121 c 0
 103.016601562 118 108.331054688 143 124.331054688 143 c 0
 168.331054688 143 189.958984375 193 172.634765625 215 c 0
 155.311523438 237 103.421875 214 96.6201171875 182 c 0
 60.9111328125 14 l 0
 59.2109375 6 51.935546875 0 43.935546875 0 c 0
 13.935546875 0 l 0
EndSplineSet
EndChar

StartChar: ae
Encoding: 224 230 221
Width: 235
VWidth: 0
Flags: HMW
LayerCount: 2
Fore
SplineSet
178.311523438 157 m 0
 143.311523438 157 124.258789062 105 132.258789062 105 c 0
 193.258789062 105 l 0
 214.258789062 105 221.311523438 157 178.311523438 157 c 0
28.220703125 86 m 0
 57.3212890625 110 87.2587890625 105 105.258789062 105 c 0
 110.360351562 129 l 0
 114.611328125 149 79.375 162 64.82421875 150 c 0
 45.4228515625 134 33.5244140625 158 52.4375 167 c 0
 83.837890625 183 121.5625 177 129.82421875 150 c 0
 149.775390625 178 198.901367188 188 222.524414062 158 c 0
 239.060546875 137 225.583007812 83 196.583007812 83 c 0
 141.583007812 83 l 0
 126.583007812 83 123.220703125 86 119.181640625 67 c 0
 119.06640625 10 154.578125 3 195.23046875 39 c 0
 206.35546875 49 215.8046875 37 205.466796875 26 c 0
 168.389648438 -12 124.264648438 -22 102.6796875 27 c 0
 71.814453125 -10 27.5390625 -16 8.640625 8 c 0
 -7.1083984375 28 0.3310546875 63 28.220703125 86 c 0
100.583007812 83 m 0
 83.5830078125 83 60.0078125 85 41.8193359375 70 c 0
 28.4814453125 59 24.017578125 38 32.6796875 27 c 0
 46.853515625 9 80.5537109375 17 93.78125 51 c 0
 100.583007812 83 l 0
EndSplineSet
EndChar

StartChar: oe
Encoding: 225 339 222
Width: 235
VWidth: 0
Flags: HMW
LayerCount: 2
Fore
SplineSet
209.504882812 26 m 0
 172.427734375 -12 128.301757812 -22 106.35546875 30 c 0
 82.978515625 0 44.876953125 -24 17.31640625 11 c 0
 -11.03125 47 5.123046875 123 48.7744140625 159 c 0
 87.5771484375 191 116.750976562 173 128.374023438 143 c 0
 153.813476562 178 202.939453125 188 226.5625 158 c 0
 243.098632812 137 229.620117188 83 200.620117188 83 c 0
 145.620117188 83 l 0
 130.620117188 83 127.045898438 85 123.006835938 66 c 0
 122.891601562 9 158.616210938 3 199.268554688 39 c 0
 210.393554688 49 219.842773438 37 209.504882812 26 c 0
136.296875 105 m 0
 197.296875 105 l 0
 218.296875 105 225.349609375 157 182.349609375 157 c 0
 147.349609375 157 128.296875 105 136.296875 105 c 0
101.01171875 146 m 0
 90.7744140625 159 78.7744140625 159 63.01171875 146 c 0
 32.697265625 121 17.818359375 51 37.5048828125 26 c 0
 47.7412109375 13 59.7412109375 13 75.5048828125 26 c 0
 105.818359375 51 120.697265625 121 101.01171875 146 c 0
EndSplineSet
EndChar

StartChar: thorn
Encoding: 227 254 224
Width: 235
VWidth: 0
Flags: HMW
LayerCount: 2
Fore
SplineSet
-7.90234375 -74 m 0
 -22.90234375 -74 -18.2265625 -52 -3.2265625 -52 c 0
 20.7734375 -52 l 0
 79.2265625 223 l 0
 55.2265625 223 l 0
 40.2265625 223 44.90234375 245 59.90234375 245 c 0
 91.90234375 245 l 0
 100.90234375 245 104.83984375 240 102.926757812 231 c 0
 82.9462890625 137 l 0
 120.57421875 187 178.57421875 187 209.28515625 148 c 0
 232.908203125 118 219.091796875 53 177.865234375 19 c 0
 135.42578125 -16 80.42578125 -16 63.3525390625 26 c 0
 46.7734375 -52 l 0
 85.7734375 -52 l 0
 100.7734375 -52 96.09765625 -74 81.09765625 -74 c 0
 -7.90234375 -74 l 0
160.840820312 33 m 0
 192.3671875 59 203.419921875 111 182.946289062 137 c 0
 165.623046875 159 131.623046875 159 102.521484375 135 c 0
 73.419921875 111 61.9423828125 57 80.8408203125 33 c 0
 98.9521484375 10 132.952148438 10 160.840820312 33 c 0
EndSplineSet
EndChar

StartChar: eng
Encoding: 228 331 225
Width: 235
VWidth: 0
Flags: HMW
LayerCount: 2
Fore
SplineSet
181.71484375 -11 m 0
 173 -52 144.536132812 -73 99.5361328125 -73 c 0
 72.5361328125 -73 l 0
 68.5361328125 -73 64.7490234375 -72 64.173828125 -70 c 0
 61.5986328125 -68 65.1494140625 -56 67.5751953125 -54 c 0
 70 -52 73.212890625 -51 77.212890625 -51 c 0
 104.212890625 -51 l 0
 132.212890625 -51 151.763671875 -39 157.71484375 -11 c 0
 184.284179688 114 l 0
 186.834960938 126 185.748046875 135 180.236328125 142 c 0
 162.69921875 163 124.787109375 154 92.7724609375 121 c 0
 71.7294921875 22 l 0
 87.7294921875 22 l 0
 91.7294921875 22 94.5166015625 21 95.091796875 19 c 0
 97.666015625 17 95.115234375 5 91.478515625 2 c 0
 89.052734375 0 87.052734375 0 83.052734375 0 c 0
 24.052734375 0 l 0
 20.052734375 0 17.052734375 0 15.478515625 2 c 0
 14.115234375 5 16.666015625 17 19.091796875 19 c 0
 21.5166015625 21 24.7294921875 22 28.7294921875 22 c 0
 47.7294921875 22 l 0
 74.7236328125 149 l 0
 56.7236328125 149 l 0
 51.7236328125 149 49.9365234375 150 48.361328125 152 c 0
 45.787109375 154 48.125 165 51.7626953125 168 c 0
 54.1875 170 56.400390625 171 61.400390625 171 c 0
 103.400390625 171 l 0
 97.8740234375 145 l 0
 126.612304688 172 178.651367188 191 203.061523438 160 c 0
 210.936523438 150 212.9609375 136 209.984375 122 c 0
 181.71484375 -11 l 0
EndSplineSet
EndChar

StartChar: oslash
Encoding: 231 248 228
Width: 235
VWidth: 0
Flags: HMW
LayerCount: 2
Fore
SplineSet
65.4541015625 153 m 0
 98.193359375 180 146.767578125 178 168.4921875 172 c 0
 176.830078125 183 l 0
 185.59375 196 201.255859375 185 193.129882812 175 c 0
 187.004882812 165 l 0
 231.052734375 137 229.536132812 64 172.545898438 17 c 0
 139.806640625 -10 92.232421875 -8 70.5078125 -2 c 0
 62.169921875 -13 l 0
 53.40625 -26 37.744140625 -15 45.8701171875 -5 c 0
 51.9951171875 5 l 0
 7.947265625 33 8.4638671875 106 65.4541015625 153 c 0
154.028320312 151 m 0
 139.729492188 159 110.154296875 161 78.6279296875 135 c 0
 36.1884765625 100 38.498046875 45 67.458984375 26 c 0
 154.028320312 151 l 0
171.328125 143 m 0
 84.7587890625 18 l 0
 99.05859375 10 127.6328125 8 159.159179688 34 c 0
 201.598632812 69 200.290039062 124 171.328125 143 c 0
EndSplineSet
EndChar

StartChar: ccedilla
Encoding: 234 231 231
Width: 235
VWidth: 0
Flags: HMW
LayerCount: 2
Fore
SplineSet
69.822265625 36 m 0
 91.8701171875 8 142.870117188 8 195.009765625 51 c 0
 205.922851562 60 216.372070312 48 204.247070312 38 c 0
 181.208007812 19 149.169921875 0 116.89453125 -6 c 0
 111.40625 -13 l 0
 126.493164062 -22 129.368164062 -32 126.817382812 -44 c 0
 120.015625 -76 80.802734375 -77 61.078125 -71 c 0
 45.140625 -66 50.1171875 -52 66.7548828125 -49 c 0
 77.1796875 -47 92.2041015625 -61 98.5419921875 -50 c 0
 112.643554688 -26 81.3056640625 -37 83.34375 -18 c 0
 90.89453125 -6 l 0
 77.5322265625 -3 62.5947265625 2 50.783203125 17 c 0
 20.0732421875 56 32.4013671875 114 79.69140625 153 c 0
 117.280273438 184 187.280273438 184 204.840820312 149 c 0
 208.241210938 165 l 0
 211.217773438 179 231.217773438 179 228.241210938 165 c 0
 215.913085938 107 l 0
 213.150390625 94 193.150390625 94 195.913085938 107 c 0
 196.55078125 110 189.58984375 129 185.65234375 134 c 0
 164.391601562 161 123.391601562 161 90.65234375 134 c 0
 61.55078125 110 50.9228515625 60 69.822265625 36 c 0
EndSplineSet
EndChar

StartChar: ogonek
Encoding: 242 731 239
Width: 235
VWidth: 0
Flags: HMW
LayerCount: 2
Fore
SplineSet
153.893554688 0 m 0
 133.854492188 -19 121.516601562 -30 118.965820312 -42 c 0
 123.139648438 -60 144.139648438 -60 168.752929688 -43 c 0
 181.666015625 -34 192.052734375 -51 170.077148438 -65 c 0
 134.401367188 -87 96.0771484375 -65 96.478515625 -49 c 0
 96.7294921875 -29 115.342773438 -12 128.893554688 0 c 0
 153.893554688 0 l 0
EndSplineSet
EndChar

StartChar: florin
Encoding: 251 402 245
Width: 235
VWidth: 0
Flags: HMW
LayerCount: 2
Fore
SplineSet
-14.970703125 -56 m 0
 -25.26953125 -48 -10.8935546875 -18 3.130859375 -32 c 0
 29.455078125 -54 60.1552734375 -46 73.9814453125 -28 c 0
 79.4697265625 -21 83.5947265625 -11 85.5078125 -2 c 0
 110.801757812 117 l 0
 74.8017578125 117 l 0
 59.8017578125 117 64.478515625 139 79.478515625 139 c 0
 115.478515625 139 l 0
 127.381835938 195 l 0
 129.08203125 203 133.482421875 219 142.970703125 226 c 0
 185.623046875 262 214.859375 249 240.796875 244 c 0
 262.159179688 241 238.20703125 213 221.057617188 217 c 0
 203.908203125 221 188.670898438 234 164.6328125 215 c 0
 157.14453125 208 151.59375 196 150.744140625 192 c 0
 139.478515625 139 l 0
 190.478515625 139 l 0
 205.478515625 139 200.801757812 117 185.801757812 117 c 0
 134.801757812 117 l 0
 109.5078125 -2 l 0
 105.469726562 -21 97.9189453125 -33 86.580078125 -44 c 0
 46.5029296875 -82 9.2041015625 -74 -14.970703125 -56 c 0
EndSplineSet
EndChar

StartChar: questiondown
Encoding: 252 191 246
Width: 235
VWidth: 0
Flags: HMW
LayerCount: 2
Fore
SplineSet
120.270507812 168 m 0
 132.395507812 178 158.395507812 178 166.270507812 168 c 0
 174.14453125 158 171.806640625 147 159.680664062 137 c 0
 147.555664062 127 121.555664062 127 113.680664062 137 c 0
 105.806640625 147 108.14453125 158 120.270507812 168 c 0
48.337890625 46 m 0
 70.1640625 64 95.8642578125 72 111.71484375 76 c 0
 115.116210938 92 l 0
 118.516601562 108 142.516601562 108 139.116210938 92 c 0
 133.376953125 65 l 0
 132.1015625 59 124.250976562 55 118.250976562 55 c 0
 103.0390625 54 88.1884765625 50 71.212890625 36 c 0
 46.9619140625 16 42.28515625 -6 57.2470703125 -25 c 0
 70.6328125 -42 114.6328125 -42 143.309570312 -20 c 0
 145.22265625 -11 l 0
 148.623046875 5 172.623046875 5 169.22265625 -11 c 0
 163.483398438 -38 l 0
 144.594726562 -61 57.681640625 -70 30.908203125 -36 c 0
 13.5849609375 -14 21.662109375 24 48.337890625 46 c 0
EndSplineSet
EndChar

StartChar: dotlessi
Encoding: 253 305 247
Width: 235
VWidth: 0
Flags: HMW
LayerCount: 2
Fore
SplineSet
169.826171875 0 m 0
 32.826171875 0 l 0
 17.826171875 0 22.5029296875 22 37.5029296875 22 c 0
 92.5029296875 22 l 0
 119.497070312 149 l 0
 79.4970703125 149 l 0
 64.4970703125 149 69.173828125 171 84.173828125 171 c 0
 134.173828125 171 l 0
 142.173828125 171 146.8984375 165 145.198242188 157 c 0
 116.502929688 22 l 0
 174.502929688 22 l 0
 189.502929688 22 184.826171875 0 169.826171875 0 c 0
EndSplineSet
EndChar

StartChar: fi
Encoding: 254 64257 248
Width: 235
VWidth: 0
Flags: HMW
LayerCount: 2
Fore
SplineSet
92.75 171 m 0
 186.75 171 l 0
 192.75 171 196.6875 166 195.412109375 160 c 0
 166.079101562 22 l 0
 195.079101562 22 l 0
 210.079101562 22 205.40234375 0 190.40234375 0 c 0
 137.40234375 0 l 0
 169.07421875 149 l 0
 88.07421875 149 l 0
 61.0791015625 22 l 0
 97.0791015625 22 l 0
 112.079101562 22 107.40234375 0 92.40234375 0 c 0
 -3.59765625 0 l 0
 -18.59765625 0 -13.9208984375 22 1.0791015625 22 c 0
 37.0791015625 22 l 0
 64.07421875 149 l 0
 28.07421875 149 l 0
 13.07421875 149 17.75 171 32.75 171 c 0
 68.75 171 l 0
 72.36328125 188 73.8896484375 214 96.9287109375 233 c 0
 126.030273438 257 204.1796875 253 219.204101562 239 c 0
 225.140625 234 198.827148438 209 191.52734375 217 c 0
 185.015625 224 130.502929688 231 111.102539062 215 c 0
 98.9765625 205 95.30078125 183 92.75 171 c 0
EndSplineSet
EndChar

StartChar: fl
Encoding: 255 64258 249
Width: 235
VWidth: 0
Flags: HMW
LayerCount: 2
Fore
SplineSet
97.0830078125 22 m 0
 112.083007812 22 107.40625 0 92.40625 0 c 0
 -3.59375 0 l 0
 -18.59375 0 -13.9169921875 22 1.0830078125 22 c 0
 37.0830078125 22 l 0
 64.0771484375 149 l 0
 28.0771484375 149 l 0
 13.0771484375 149 17.75390625 171 32.75390625 171 c 0
 68.75390625 171 l 0
 72.3671875 188 73.8935546875 214 96.931640625 233 c 0
 124.821289062 256 167.7578125 251 191.6953125 246 c 0
 204.482421875 245 212.844726562 242 211.569335938 236 c 0
 166.083007812 22 l 0
 195.083007812 22 l 0
 210.083007812 22 205.40625 0 190.40625 0 c 0
 137.40625 0 l 0
 169.077148438 149 l 0
 88.0771484375 149 l 0
 61.0830078125 22 l 0
 97.0830078125 22 l 0
92.75390625 171 m 0
 173.75390625 171 l 0
 182.893554688 214 l 0
 159.59375 222 134.14453125 234 111.106445312 215 c 0
 98.98046875 205 95.3046875 183 92.75390625 171 c 0
EndSplineSet
EndChar

